<svg xmlns="http://www.w3.org/2000/svg" viewBox="0 0 521.9 114.31"><defs><style>.cls-1{fill:#9a9999;}</style></defs><title>Risorsa 2</title><g id="Livello_2" data-name="Livello 2"><g id="Livello_1-2" data-name="Livello 1"><path d="M14.24,40.88a9.35,9.35,0,0,0,.51,3.56,2.7,2.7,0,0,0,1.82,1.49,16.36,16.36,0,0,0,4.18.42v1.34q-7.48-.18-11.15-.18-1.74,0-9.6.18V46.47A9.53,9.53,0,0,0,3,46a2.22,2.22,0,0,0,1.26-1.43,12.08,12.08,0,0,0,.34-3.34V11A12.05,12.05,0,0,0,4.21,7.7,2.2,2.2,0,0,0,3,6.28,9,9,0,0,0,0,5.81V4.58q3.08.18,9.24.18c1.63,0,3.43,0,5.42-.06s3.36-.06,4.13-.06a25.28,25.28,0,0,1,9.32,1.5,12.16,12.16,0,0,1,5.68,4.21,10.7,10.7,0,0,1,1.88,6.3A13.13,13.13,0,0,1,34,23.07a12.79,12.79,0,0,1-5.77,5.14,24,24,0,0,1-10.75,2.06H14.24Zm9.45-15a16.69,16.69,0,0,0,1.88-8.57A16.82,16.82,0,0,0,23.82,8.6,6.31,6.31,0,0,0,18,5.81a5.34,5.34,0,0,0-2.43.42,2.33,2.33,0,0,0-1.07,1.52A14.45,14.45,0,0,0,14.24,11v18h2.61a7.26,7.26,0,0,0,6.84-3.17Z"/><path d="M47.48,31.73a17.17,17.17,0,0,0,1.13,6.69,8.6,8.6,0,0,0,2.93,3.9,6.74,6.74,0,0,0,3.85,1.24,9.18,9.18,0,0,0,8-4.88l1.07.36a15.21,15.21,0,0,1-2.39,4.65A12.6,12.6,0,0,1,58,47.2a11.62,11.62,0,0,1-5.66,1.35A14.76,14.76,0,0,1,45,46.77a12,12,0,0,1-4.93-5.43,20.57,20.57,0,0,1-1.78-9.05A20.68,20.68,0,0,1,40.2,23a13,13,0,0,1,5.26-5.69,15.37,15.37,0,0,1,7.76-1.91A11.11,11.11,0,0,1,64.91,25.88a11.55,11.55,0,0,1-.24,3H47.58A27.71,27.71,0,0,0,47.48,31.73ZM56,19.8a3.66,3.66,0,0,0-3.19-3.15,4.2,4.2,0,0,0-3.62,2.69,21.34,21.34,0,0,0-1.77,8.37H57A24.07,24.07,0,0,0,56,19.8Z"/><path d="M81,44.68A2.29,2.29,0,0,0,82.19,46a5.8,5.8,0,0,0,2.3.38v1.28q-6.3-.24-8.15-.24-2.11,0-8.41.24V46.41A5.78,5.78,0,0,0,70.22,46a2.42,2.42,0,0,0,1.22-1.35A7.17,7.17,0,0,0,71.82,42V7.32A7.36,7.36,0,0,0,71,3.23a3.45,3.45,0,0,0-3-1.27V.69c1.29.12,2.55.17,3.77.17A37.49,37.49,0,0,0,80.6,0V42A7.38,7.38,0,0,0,81,44.68Z"/><path d="M118.31,45.14a3.4,3.4,0,0,0,3,1.27v1.28q-1.9-.18-3.78-.18a38.47,38.47,0,0,0-8.89.86v-5.5a10,10,0,0,1-9.81,5.68,8.41,8.41,0,0,1-6.63-2.37,6.69,6.69,0,0,1-1.44-3,22.43,22.43,0,0,1-.43-4.91V22.84a7.34,7.34,0,0,0-.88-4.08,3.41,3.41,0,0,0-3-1.28V16.21c1.29.12,2.55.17,3.78.17a39.68,39.68,0,0,0,8.89-.83V40.76a7.64,7.64,0,0,0,.76,3.82,3,3,0,0,0,2.86,1.3,5.13,5.13,0,0,0,3-.94,6.69,6.69,0,0,0,2.16-2.56,7.91,7.91,0,0,0,.8-3.58v-16a7.42,7.42,0,0,0-.87-4.08,3.44,3.44,0,0,0-3-1.28V16.21c1.3.12,2.56.17,3.78.17a39.68,39.68,0,0,0,8.89-.83V41.06A7.25,7.25,0,0,0,118.31,45.14Z"/><path d="M129.07,10.32a11,11,0,0,1,2.9-4.4,12.3,12.3,0,0,1,4.31-2.51,16.37,16.37,0,0,1,5.63-.91,12.39,12.39,0,0,1,4.47.79,8.74,8.74,0,0,1,3.38,2.27,11.55,11.55,0,0,1,1.92-2.43A9.92,9.92,0,0,1,155.29.91,13.4,13.4,0,0,1,160,.07a10.57,10.57,0,0,1,6.54,2A6.05,6.05,0,0,1,168.07,4a6.17,6.17,0,0,1,.56,2.64,4.07,4.07,0,0,1-.56,2.07,3.92,3.92,0,0,1-1.55,1.55,4.19,4.19,0,0,1-2.21.57A4.72,4.72,0,0,1,161,9.71a4,4,0,0,1-1.27-3.16,4.33,4.33,0,0,1,.93-2.81A4.84,4.84,0,0,1,163.25,2a1.3,1.3,0,0,0-.75-.63,3.82,3.82,0,0,0-1.42-.24,3.65,3.65,0,0,0-3.31,1.61,6.62,6.62,0,0,0-.9,2.66,44.83,44.83,0,0,0-.23,5.31v5.52h6.5v1.22h-6.5V41.41A4.67,4.67,0,0,0,158,45.32a7.23,7.23,0,0,0,4.32,1.09v1.28q-8.57-.24-10.48-.24t-7.89.24V46.41a5.78,5.78,0,0,0,2.29-.38,2.23,2.23,0,0,0,1.2-1.35,7.17,7.17,0,0,0,.38-2.64V17.48H137.23V42a7.17,7.17,0,0,0,.38,2.64,2.3,2.3,0,0,0,1.2,1.34,5.78,5.78,0,0,0,2.33.39v1.28q-6.67-.24-8.43-.24-2.11,0-8.88.24V46.41a6.64,6.64,0,0,0,2.5-.38,2.48,2.48,0,0,0,1.33-1.35,6.77,6.77,0,0,0,.41-2.64V17.48h-4.48V16.26h4.48A17.16,17.16,0,0,1,129.07,10.32Zm20.09-3.54a7,7,0,0,0-2.67-2.15,8.29,8.29,0,0,0-3.6-.79,5,5,0,0,0-4.31,1.93,10.87,10.87,0,0,0-1.35,6.12v4.37h10.62a26.32,26.32,0,0,1,1.31-9.48Z"/><path d="M190.91,19.35a17.34,17.34,0,0,1,4,12.64,17.21,17.21,0,0,1-4,12.59,17,17,0,0,1-21.85,0,17.11,17.11,0,0,1-4-12.59,17.23,17.23,0,0,1,4-12.62A16.94,16.94,0,0,1,190.91,19.35Zm-15.09,1A32.21,32.21,0,0,0,174.27,32a31.89,31.89,0,0,0,1.55,11.56A4.86,4.86,0,0,0,180,47.33a4.8,4.8,0,0,0,4.17-3.76A32.92,32.92,0,0,0,185.71,32a33.28,33.28,0,0,0-1.54-11.64,4.19,4.19,0,0,0-8.34,0h0Z"/><path d="M261.94,19.34a21.66,21.66,0,0,1-9.21,3.82l-1.13.39a8.6,8.6,0,0,1,4.21,3.88,12.73,12.73,0,0,1,1.47,6.19,12.09,12.09,0,0,1-2.63,7.66,17.15,17.15,0,0,1-7.4,5.34,29.13,29.13,0,0,1-11,1.93,34.54,34.54,0,0,1-11.76-1.84,17.43,17.43,0,0,1-7.87-5.28,12.45,12.45,0,0,1-2.79-8,11,11,0,0,1,2.2-6.95,15.33,15.33,0,0,1,5-4.31A25,25,0,0,1,226.24,20a8.78,8.78,0,0,1-6.9-7.67,6.07,6.07,0,0,1,1.71-4.29,10.75,10.75,0,0,1,4.49-2.71,19.33,19.33,0,0,1,5.94-.91,18.57,18.57,0,0,1,3.72.31,9.78,9.78,0,0,1,2.61,1,5.54,5.54,0,0,1,3.72,4.93,3.62,3.62,0,0,1-.64,2.11,4.45,4.45,0,0,1-1.72,1.41,5.52,5.52,0,0,1-2.33.5,5.08,5.08,0,0,1-3.2-1,3.38,3.38,0,0,1-1.24-2.81,4.07,4.07,0,0,1,1.09-2.78,4.59,4.59,0,0,1,2.8-1.54,4.19,4.19,0,0,0-1.63-.79,9.37,9.37,0,0,0-2.41-.31,8.4,8.4,0,0,0-3.87.9,6.53,6.53,0,0,0-2.72,2.69,8.7,8.7,0,0,0-1,4.38A9.08,9.08,0,0,0,227,19.68a18.65,18.65,0,0,1,3.42-.47,2.69,2.69,0,0,1,1.65.44,1.43,1.43,0,0,1,.6,1.2,1.1,1.1,0,0,1-.49.92,2.09,2.09,0,0,1-1.24.35,4.06,4.06,0,0,1-1.67-.37,15.37,15.37,0,0,1-1.46-.74l-.76-.46a13,13,0,0,0-4.77,3.9,9.94,9.94,0,0,0-1.69,5.93,9.8,9.8,0,0,0,4.72,8.86,24.32,24.32,0,0,0,13.08,3A26.3,26.3,0,0,0,246.49,41a15.23,15.23,0,0,0,6.28-3.64,7.85,7.85,0,0,0,2.41-5.74,7.92,7.92,0,0,0-4.65-7.76c-1.16.36-2.51.75-4.06,1.18s-2.61.74-3.25.94a44.27,44.27,0,0,0-5.52,1.53,9.35,9.35,0,0,0-3.23,1.84,3.35,3.35,0,0,0-1.11,2.55,3.79,3.79,0,0,0,1,2.56,6.33,6.33,0,0,0,2.5,1.73,8.39,8.39,0,0,0,3.13.61,6.46,6.46,0,0,0,1.39-.18,2.24,2.24,0,0,0,1-.42,4.39,4.39,0,0,1-2.26-1.54,4.07,4.07,0,0,1-.77-2.47,3.52,3.52,0,0,1,1.36-2.94,5.52,5.52,0,0,1,3.51-1.08,5.05,5.05,0,0,1,3.44,1.13,3.83,3.83,0,0,1,1.26,3,4.49,4.49,0,0,1-2.45,4.13,12.22,12.22,0,0,1-6.2,1.39,11.61,11.61,0,0,1-4.58-.85A7.11,7.11,0,0,1,231.18,30a8.68,8.68,0,0,1,3.47-7.22,24.61,24.61,0,0,1,10.15-4c.75-.2,2.11-.53,4.06-1s3.65-.95,5-1.43a25.6,25.6,0,0,0,6.93-2.52,4,4,0,0,0,2.25-3.48,4.47,4.47,0,0,0-1-2.85,6.76,6.76,0,0,0-2.59-2,8,8,0,0,0-3.31-.71,4.13,4.13,0,0,0-1.77.3,4.72,4.72,0,0,1,2.2,1.61A3.64,3.64,0,0,1,257.41,9,3.47,3.47,0,0,1,256,11.82a5.61,5.61,0,0,1-3.52,1.06,5.18,5.18,0,0,1-3.41-1.09,3.65,3.65,0,0,1-1.3-3,4.24,4.24,0,0,1,2.05-3.74,9.94,9.94,0,0,1,5.56-1.37,11.77,11.77,0,0,1,5,1,7.81,7.81,0,0,1,3.4,3,8.57,8.57,0,0,1,1.23,4.6A8.57,8.57,0,0,1,261.94,19.34Z"/><path d="M296.55,40.88a9.16,9.16,0,0,0,.51,3.56,2.66,2.66,0,0,0,1.82,1.49,16.39,16.39,0,0,0,4.19.42v1.34q-7.5-.18-11.16-.18c-1.17,0-4.36.06-9.6.18V46.47a9.53,9.53,0,0,0,2.95-.47,2.27,2.27,0,0,0,1.26-1.43,11.71,11.71,0,0,0,.33-3.34V11a11.67,11.67,0,0,0-.33-3.33,2.23,2.23,0,0,0-1.26-1.42,9,9,0,0,0-2.95-.47V4.58c2,.12,5.13.18,9.24.18,1.64,0,3.44,0,5.41-.06s3.37-.06,4.14-.06a25.32,25.32,0,0,1,9.32,1.5,12.07,12.07,0,0,1,5.67,4.21,10.72,10.72,0,0,1,1.9,6.3,13.24,13.24,0,0,1-1.69,6.42,13,13,0,0,1-5.77,5.14,24,24,0,0,1-10.77,2.06h-3.21V40.88Zm9.45-15a16.69,16.69,0,0,0,1.88-8.57,16.64,16.64,0,0,0-1.77-8.71,6.28,6.28,0,0,0-5.78-2.79,5.34,5.34,0,0,0-2.43.42,2.33,2.33,0,0,0-1.07,1.52,14.45,14.45,0,0,0-.28,3.28v18h2.61A7.27,7.27,0,0,0,306,25.88Z"/><path d="M335.63,18a4.62,4.62,0,0,0-3.76-1.46,7.7,7.7,0,0,0-2.38.38,4.85,4.85,0,0,0-2,1.11,5.5,5.5,0,0,1,2.65,1.76,4.79,4.79,0,0,1,.94,3,4.1,4.1,0,0,1-2.35,3.81,5.6,5.6,0,0,1-2.57.59,4,4,0,0,1-3.14-1.34,4.91,4.91,0,0,1-1.18-3.36,5.77,5.77,0,0,1,3.4-5.11,18.84,18.84,0,0,1,9.26-2.06,12,12,0,0,1,8.89,2.74,6.43,6.43,0,0,1,1.73,3.18,24.37,24.37,0,0,1,.45,5.32V43.17a5.48,5.48,0,0,0,.28,2.09,1,1,0,0,0,1,.62,3.75,3.75,0,0,0,2.25-1.05l.62,1.05a9.28,9.28,0,0,1-3,1.69,12.77,12.77,0,0,1-3.93.53,6,6,0,0,1-4.45-1.36A4.8,4.8,0,0,1,337,43.17a9.82,9.82,0,0,1-3.89,3.7A11.14,11.14,0,0,1,328,48.1a8.23,8.23,0,0,1-5.58-1.82,6.44,6.44,0,0,1-2.09-5.1,7.13,7.13,0,0,1,2.09-5.26,17.44,17.44,0,0,1,6.44-3.69l3.09-1.17a12.43,12.43,0,0,0,3.77-2,3.07,3.07,0,0,0,1.17-2.29V22A6,6,0,0,0,335.63,18Zm-.05,12.56a26.57,26.57,0,0,1-2.52,1.71,11.31,11.31,0,0,0-3,3,7.48,7.48,0,0,0-1.11,4.18A5.28,5.28,0,0,0,330,43a3.43,3.43,0,0,0,2.72,1.17,4.93,4.93,0,0,0,4.13-2.5V29.23A5.35,5.35,0,0,1,335.58,30.58Z"/><path d="M367.54,17a8,8,0,0,1,4.94-1.63,5.54,5.54,0,0,1,3.1.81,4.88,4.88,0,0,1,1.84,2.06A6.24,6.24,0,0,1,378,21a5.32,5.32,0,0,1-1.31,3.69,4.49,4.49,0,0,1-3.46,1.43A4.79,4.79,0,0,1,370,25a3.57,3.57,0,0,1-1.2-2.84,5.54,5.54,0,0,1,2.67-4.75,2.78,2.78,0,0,0-.76-.1,4.2,4.2,0,0,0-.93.15A5.25,5.25,0,0,0,366.92,19a8.73,8.73,0,0,0-2,3,8.6,8.6,0,0,0-.74,3.35V41.41a4.7,4.7,0,0,0,1.38,3.91,7,7,0,0,0,4.35,1.09v1.28c-5.07-.16-8.3-.24-9.67-.24s-4.21.08-8.72.24V46.41a5.88,5.88,0,0,0,2.31-.38,2.31,2.31,0,0,0,1.2-1.35,7.17,7.17,0,0,0,.38-2.64V22.84a7.36,7.36,0,0,0-.87-4.09,3.36,3.36,0,0,0-3-1.27V16.21c1.28.12,2.54.17,3.78.17a39.54,39.54,0,0,0,8.88-.83V21.2A10.34,10.34,0,0,1,367.54,17Z"/><path d="M399.54,16.26v1.22h-7.2V42a3.84,3.84,0,0,0,.66,2.57,2.52,2.52,0,0,0,2,.76,4.8,4.8,0,0,0,4.13-3.66l1,.57a8.38,8.38,0,0,1-8.33,6.27,8.25,8.25,0,0,1-6.09-2.08A6.49,6.49,0,0,1,384,43.3a24.28,24.28,0,0,1-.46-5.31V17.48h-5.1V16.26h5.11V8.18a18.64,18.64,0,0,0,8.77-2v10Z"/><path d="M424,15.37a11.81,11.81,0,0,1,4.08.6,6.44,6.44,0,0,1,2.61,1.75,7.15,7.15,0,0,1,1.44,3,22.17,22.17,0,0,1,.46,4.94V42a7.38,7.38,0,0,0,.37,2.64A2.43,2.43,0,0,0,434.22,46a5.61,5.61,0,0,0,2.29.39v1.28c-4-.16-6.72-.24-8-.24s-3.89.08-7.95.24V46.41a4.35,4.35,0,0,0,2-.38,2.23,2.23,0,0,0,1-1.35,8.11,8.11,0,0,0,.32-2.64V23.1a7.06,7.06,0,0,0-.81-3.77,3.26,3.26,0,0,0-3-1.28,5.33,5.33,0,0,0-3,.92,6.45,6.45,0,0,0-2.18,2.54,7.82,7.82,0,0,0-.81,3.58V42a8.73,8.73,0,0,0,.32,2.64A2.24,2.24,0,0,0,415.41,46a4.07,4.07,0,0,0,1.94.39v1.28q-5.61-.24-7.56-.24t-8.41.24V46.41a5.88,5.88,0,0,0,2.31-.38,2.35,2.35,0,0,0,1.2-1.35,7.17,7.17,0,0,0,.38-2.64V22.84a7.36,7.36,0,0,0-.87-4.09,3.38,3.38,0,0,0-3-1.27V16.21c1.28.12,2.53.17,3.77.17a39.58,39.58,0,0,0,8.89-.83V21A10.13,10.13,0,0,1,424,15.37Z"/><path d="M448.73,31.73a17.17,17.17,0,0,0,1.13,6.69,8.6,8.6,0,0,0,2.93,3.9,6.68,6.68,0,0,0,3.83,1.24,9.15,9.15,0,0,0,8.06-4.88l1.07.35a15.46,15.46,0,0,1-2.38,4.66,12.77,12.77,0,0,1-4.12,3.51,11.58,11.58,0,0,1-5.65,1.35,14.9,14.9,0,0,1-7.37-1.78,12.15,12.15,0,0,1-4.92-5.43,20.59,20.59,0,0,1-1.77-9.05,20.38,20.38,0,0,1,1.9-9.32,13,13,0,0,1,5.26-5.69,15.45,15.45,0,0,1,7.76-1.91,11.1,11.1,0,0,1,11.44,13.5H448.8C448.75,29.46,448.73,30.42,448.73,31.73Zm8.53-11.93a3.64,3.64,0,0,0-3.2-3.15,4.18,4.18,0,0,0-3.6,2.69,21.37,21.37,0,0,0-1.77,8.37h9.55A23.81,23.81,0,0,0,457.26,19.8Z"/><path d="M485.07,17A8,8,0,0,1,490,15.37a5.54,5.54,0,0,1,3.1.81A4.88,4.88,0,0,1,495,18.24a6.24,6.24,0,0,1,.6,2.72,5.32,5.32,0,0,1-1.31,3.69,4.49,4.49,0,0,1-3.46,1.43A4.77,4.77,0,0,1,487.51,25a3.57,3.57,0,0,1-1.2-2.84A5.54,5.54,0,0,1,489,17.43a2.78,2.78,0,0,0-.76-.1,4.38,4.38,0,0,0-.94.15A5.23,5.23,0,0,0,484.45,19a8.91,8.91,0,0,0-2,3,8.77,8.77,0,0,0-.73,3.35V41.41a4.73,4.73,0,0,0,1.37,3.91,7,7,0,0,0,4.36,1.09v1.28c-5.07-.16-8.3-.24-9.67-.24s-4.21.08-8.72.24V46.41a5.88,5.88,0,0,0,2.31-.38,2.35,2.35,0,0,0,1.2-1.35A7.17,7.17,0,0,0,473,42V22.84a7.36,7.36,0,0,0-.87-4.09,3.38,3.38,0,0,0-3-1.27V16.21c1.28.12,2.54.17,3.78.17a39.54,39.54,0,0,0,8.88-.83V21.2A10.34,10.34,0,0,1,485.07,17Z"/><path d="M502.92,44.18a6.29,6.29,0,0,0,5.6,3,4.52,4.52,0,0,0,3-1.08,4.07,4.07,0,0,0,1.26-3.26,6.05,6.05,0,0,0-.75-3,9.8,9.8,0,0,0-1.92-2.38q-1.15-1-3.47-2.86c-1.88-1.52-3.31-2.72-4.25-3.58A13.06,13.06,0,0,1,500,27.85a8.47,8.47,0,0,1-1-4.09,7.29,7.29,0,0,1,1.43-4.52,8.67,8.67,0,0,1,3.83-2.88,13.53,13.53,0,0,1,5.22-1,14.87,14.87,0,0,1,4.25.57,10.8,10.8,0,0,1,3,1.31,1.92,1.92,0,0,0,1.08.41c.75,0,1.22-.74,1.42-2.22h1.34q-.25,3.06-.25,10.7H519a15.35,15.35,0,0,0-2.39-6.71,6.14,6.14,0,0,0-5.41-2.72,4.27,4.27,0,0,0-3,1.05,3.61,3.61,0,0,0-1.14,2.84,5,5,0,0,0,1.35,3.54A20.48,20.48,0,0,0,511.79,27c1.29.91,2.23,1.59,2.81,2.05a42.81,42.81,0,0,1,4,3.27,11.75,11.75,0,0,1,2.4,3.16,8.7,8.7,0,0,1,.93,4.06,7.68,7.68,0,0,1-1.56,4.73,10,10,0,0,1-4.21,3.16,14.84,14.84,0,0,1-5.81,1.12,11.86,11.86,0,0,1-5.64-1.27A22.75,22.75,0,0,0,501.83,46l-.3-.07c-.66,0-1.13.73-1.43,2.17h-1.34c.15-2.32.25-6.37.25-12.16h1.33A18.74,18.74,0,0,0,502.92,44.18Z"/><path class="cls-1" d="M117,114l-2.17-6h-8.36l-2.13,6h-3.76l8.17-21.91h3.88L120.75,114Zm-3.12-9.13-2-5.94c-.15-.4-.36-1-.62-1.88s-.45-1.48-.55-1.88a32.75,32.75,0,0,1-1.18,4l-2,5.7Z"/><path class="cls-1" d="M136.37,105.27V114h-3.56V92.15H139a10.16,10.16,0,0,1,6.25,1.6,5.7,5.7,0,0,1,2,4.77,6,6,0,0,1-4.24,5.81l6.16,9.66h-4.06l-5.22-8.72Zm0-3h2.48a5.76,5.76,0,0,0,3.61-.92,3.37,3.37,0,0,0,1.12-2.76A3,3,0,0,0,142.37,96a6.52,6.52,0,0,0-3.64-.81h-2.36v7.14Z"/><path class="cls-1" d="M170.79,94.92A5.88,5.88,0,0,0,166,97.1a9.28,9.28,0,0,0-1.75,6,9.32,9.32,0,0,0,1.69,6.07,6,6,0,0,0,4.9,2.06,12.23,12.23,0,0,0,2.69-.28c.86-.19,1.76-.41,2.69-.71v3.06a16.21,16.21,0,0,1-5.81,1,9.36,9.36,0,0,1-7.37-2.91,12.15,12.15,0,0,1-2.56-8.31,13.36,13.36,0,0,1,1.25-6,8.82,8.82,0,0,1,3.6-3.9,11,11,0,0,1,5.54-1.36A14.07,14.07,0,0,1,177,93.24l-1.29,3a17,17,0,0,0-2.34-.92A8.32,8.32,0,0,0,170.79,94.92Z"/><path class="cls-1" d="M207.25,114h-3.58v-9.83H193.61V114h-3.56V92.15h3.56v8.95h10.06V92.15h3.58V114Z"/><path class="cls-1" d="M222.18,114V92.15h3.56V114Z"/><path class="cls-1" d="M248.21,114h-3.57V95.24h-6.41V92.15h16.4v3.09h-6.42V114Z"/><path class="cls-1" d="M279.5,114H267.14V92.15H279.5v3h-8.8v5.94h8.23v3H270.7V111h8.8Z"/><path class="cls-1" d="M300.9,114h-3.55V95.24h-6.43V92.15h16.41v3.09H300.9V114Z"/><path class="cls-1" d="M327.37,114h-3.55V95.24H317.4V92.15h16.4v3.09h-6.43Z"/><path class="cls-1" d="M363.41,92.15v14.13a8.23,8.23,0,0,1-1.05,4.23,6.8,6.8,0,0,1-3,2.8,10.38,10.38,0,0,1-4.69,1,8.83,8.83,0,0,1-6.32-2.14,7.83,7.83,0,0,1-2.25-5.92V92.15h3.59V106a5.6,5.6,0,0,0,1.24,4,5.25,5.25,0,0,0,3.85,1.27,4.58,4.58,0,0,0,5-5.29V92.15Z"/><path class="cls-1" d="M381.73,105.27V114h-3.57V92.15h6.17a10.14,10.14,0,0,1,6.25,1.6,5.67,5.67,0,0,1,2,4.77,6,6,0,0,1-4.22,5.81l6.16,9.66h-4.06l-5.22-8.72Zm0-3h2.48a5.76,5.76,0,0,0,3.61-.92A3.38,3.38,0,0,0,389,98.64,3,3,0,0,0,387.73,96a6.49,6.49,0,0,0-3.63-.81h-2.37v7.14Z"/><path class="cls-1" d="M422.38,114l-2.17-6h-8.35l-2.13,6H406l8.16-21.91H418L426.18,114Zm-3.12-9.13-2-5.94c-.15-.4-.35-1-.62-1.88s-.45-1.48-.54-1.88a34.62,34.62,0,0,1-1.18,4l-2,5.7Z"/></g></g></svg>