<svg id="Livello_1" data-name="Livello 1" xmlns="http://www.w3.org/2000/svg" viewBox="0 0 40.83264 5.94086">
  <defs>
    <style>
      .cls-1 {
        fill: #999;
      }
    </style>
  </defs>
  <title>logo_negativo2_1</title>
  <g>
    <path d="M1.88577,2.355a0.07383,0.07383,0,0,0-.06494-0.05713,0.42213,0.42213,0,0,0-.17139.06641,1.04569,1.04569,0,0,1-.51953.15918A1.296,1.296,0,0,1,.51224,2.38821,0.88618,0.88618,0,0,1,.12991,1.99707,1.34327,1.34327,0,0,1,.00052,1.3833,1.28972,1.28972,0,0,1,.14652.75976,1.04113,1.04113,0,0,1,.55325.34179,1.17116,1.17116,0,0,1,1.14552.19335a0.901,0.901,0,0,1,.3301.05322,1.11665,1.11665,0,0,1,.26465.15234,0.11669,0.11669,0,0,0,.06347.0293A0.0583,0.0583,0,0,0,1.85452.3833,0.55826,0.55826,0,0,0,1.88431.2383H1.95657q-0.01245.21458-.0122,0.76609H1.87015A1.47639,1.47639,0,0,0,1.79737.65771,0.51756,0.51756,0,0,0,1.63382.43115a0.53011,0.53011,0,0,0-.187-0.11328,0.652,0.652,0,0,0-.227-0.041A0.49255,0.49255,0,0,0,.85208.42721a0.91758,0.91758,0,0,0-.21728.398,1.96815,1.96815,0,0,0-.07028.53955q0,1.095.60742,1.09521a0.36918,0.36918,0,0,0,.22412-0.06348,0.1541,0.1541,0,0,0,.05856-0.06641,0.24663,0.24663,0,0,0,.01709-0.09863V1.92236a0.68983,0.68983,0,0,0-.0249-0.21729,0.15086,0.15086,0,0,0-.08887-0.09424A0.6825,0.6825,0,0,0,1.15337,1.5791V1.5161C1.275,1.52294,1.45513,1.52684,1.6939,1.52684c0.19482,0,.33594-0.00391.42334-0.01074v0.063A0.19888,0.19888,0,0,0,2.025,1.605a0.1115,0.1115,0,0,0-.03908.07222,1.02128,1.02128,0,0,0-.01074.17383V2.47851h-0.063A0.38949,0.38949,0,0,0,1.88577,2.355Z" transform="translate(0)"/>
    <path d="M2.94388,2.32226a0.12469,0.12469,0,0,0,.06348.06982,0.29031,0.29031,0,0,0,.11865.02V2.47851Q2.81107,2.46606,2.70608,2.4663q-0.10034,0-.44043.01221V2.4121a0.297,0.297,0,0,0,.11963-0.02,0.123,0.123,0,0,0,.06348-0.06982,0.393,0.393,0,0,0,.019-0.13721V1.187A0.38651,0.38651,0,0,0,2.42337.9746,0.17745,0.17745,0,0,0,2.26566.90869V0.84228C2.33252,0.84863,2.398.85156,2.46194,0.85156A2.04985,2.04985,0,0,0,2.92386.8081v1.377A0.37887,0.37887,0,0,0,2.94388,2.32226ZM2.88577,0.0913A0.21851,0.21851,0,0,1,2.9639.269a0.21949,0.21949,0,0,1-.07813.17918,0.3148,0.3148,0,0,1-.209.06494A0.31868,0.31868,0,0,1,2.46487.44821,0.22169,0.22169,0,0,1,2.38773.269,0.2207,0.2207,0,0,1,2.46487.0913,0.32133,0.32133,0,0,1,2.67679.02636,0.31745,0.31745,0,0,1,2.88577.0913Z" transform="translate(0)"/>
    <path d="M4.07571,0.93652A0.24,0.24,0,0,0,3.88037.86084a0.40585,0.40585,0,0,0-.124.01953A0.25177,0.25177,0,0,0,3.65481.938a0.28385,0.28385,0,0,1,.13721.0918,0.245,0.245,0,0,1,.04935.15722,0.22107,0.22107,0,0,1-.03125.1167,0.22554,0.22554,0,0,1-.09036.0815,0.29291,0.29291,0,0,1-.13477.03027,0.20662,0.20662,0,0,1-.16308-0.06927,0.25681,0.25681,0,0,1-.061-0.1748A0.30232,0.30232,0,0,1,3.53714.90576,0.98554,0.98554,0,0,1,4.01907.79882a0.624,0.624,0,0,1,.4624.14258,0.33844,0.33844,0,0,1,.08936.165,1.27,1.27,0,0,1,.023.27686V2.24365a0.27183,0.27183,0,0,0,.01514.10889,0.05242,0.05242,0,0,0,.05176.03174,0.19786,0.19786,0,0,0,.11719-0.0542l0.03223,0.0542a0.47846,0.47846,0,0,1-.15723.08789A0.661,0.661,0,0,1,4.44877,2.5a0.31927,0.31927,0,0,1-.23194-0.07079A0.251,0.251,0,0,1,4.146,2.24366a0.50393,0.50393,0,0,1-.20266.19237,0.5806,0.5806,0,0,1-.26709.064A0.42549,0.42549,0,0,1,3.38673,2.4053a0.33311,0.33311,0,0,1-.10889-0.26514,0.36978,0.36978,0,0,1,.10793-0.27347,0.9178,0.9178,0,0,1,.33545-0.19141c0.01615-.00634.06983-0.02685,0.16065-0.06107a0.65572,0.65572,0,0,0,.19629-0.106,0.1587,0.1587,0,0,0,.06006-0.11914V1.14355A0.31649,0.31649,0,0,0,4.07571.93652Zm-0.00293.65283a1.45176,1.45176,0,0,1-.13086.08887,0.58025,0.58025,0,0,0-.15771.15674,0.388,0.388,0,0,0-.05713.21729,0.27227,0.27227,0,0,0,.0542.18457,0.18148,0.18148,0,0,0,.14209.061A0.25841,0.25841,0,0,0,4.13821,2.168V1.519A0.27431,0.27431,0,0,1,4.07278,1.58935Z" transform="translate(0)"/>
    <path d="M6.07864,0.79882A0.61741,0.61741,0,0,1,6.291.83007a0.3281,0.3281,0,0,1,.13525.09082,0.36566,0.36566,0,0,1,.07568.15625,1.1216,1.1216,0,0,1,.02344.25635V2.185a0.36849,0.36849,0,0,0,.02.13721,0.12393,0.12393,0,0,0,.063.06982,0.29286,0.29286,0,0,0,.11914.02V2.47851q-0.31494-.01245-0.417-0.01221-0.09741,0-.4126.01221V2.4121a0.22014,0.22014,0,0,0,.102-0.02,0.117,0.117,0,0,0,.0533-0.06982A0.45927,0.45927,0,0,0,6.06937,2.185V1.20068a0.36851,0.36851,0,0,0-.04248-0.19629A0.16909,0.16909,0,0,0,5.87308.938a0.28045,0.28045,0,0,0-.1582.04785,0.33543,0.33543,0,0,0-.11377.13232,0.41294,0.41294,0,0,0-.0415.186V2.185a0.42524,0.42524,0,0,0,.01709.13721,0.11946,0.11946,0,0,0,.05371.06982,0.21634,0.21634,0,0,0,.10059.02V2.47851C5.53714,2.47021,5.40677,2.4663,5.33837,2.4663q-0.09741,0-.437.01221V2.4121a0.297,0.297,0,0,0,.11963-0.02,0.123,0.123,0,0,0,.06352-0.06982,0.393,0.393,0,0,0,.019-0.13721V1.187A0.38651,0.38651,0,0,0,5.05911.9746,0.17745,0.17745,0,0,0,4.90137.90869V0.84228C4.96829,0.84863,5.03372.85156,5.09769,0.85156A2.04985,2.04985,0,0,0,5.5596.8081V1.09277A0.52619,0.52619,0,0,1,6.07864.79882Z" transform="translate(0)"/>
    <path d="M7.50882,2.32226a0.12145,0.12145,0,0,0,.06348.06982,0.297,0.297,0,0,0,.11963.02V2.47851Q7.36452,2.46606,7.26858,2.4663q-0.10986,0-.437.01221V2.4121a0.29031,0.29031,0,0,0,.11865-0.02,0.12469,0.12469,0,0,0,.06348-0.06982,0.37888,0.37888,0,0,0,.02-0.13721V0.38037A0.38336,0.38336,0,0,0,6.98831.168,0.17783,0.17783,0,0,0,6.83152.102V0.03564C6.89852,0.042,6.9639.04492,7.02737,0.04492A1.97749,1.97749,0,0,0,7.48977,0V2.185A0.393,0.393,0,0,0,7.50882,2.32226Z" transform="translate(0)"/>
    <path d="M9.44974,2.34621a0.17669,0.17669,0,0,0,.15674.06592V2.47851Q9.5076,2.46906,9.41019,2.46921a1.99673,1.99673,0,0,0-.46191.04492V2.228a0.51822,0.51822,0,0,1-.50977.29541,0.43691,0.43691,0,0,1-.34473-0.12354,0.34377,0.34377,0,0,1-.07471-0.15624,1.16232,1.16232,0,0,1-.02246-0.25488V1.187A0.379,0.379,0,0,0,7.95071.97509,0.17574,0.17574,0,0,0,7.794.90869V0.84228C7.86087,0.84863,7.9263.85156,7.99026,0.85156A2.074,2.074,0,0,0,8.45218.8081V2.11865a0.39672,0.39672,0,0,0,.03955.19824,0.15756,0.15756,0,0,0,.14893.06738,0.26284,0.26284,0,0,0,.15381-0.04883,0.34165,0.34165,0,0,0,.1123-0.13281,0.41293,0.41293,0,0,0,.0415-0.186V1.187A0.38371,0.38371,0,0,0,8.90286.97509,0.17725,0.17725,0,0,0,8.74564.90869V0.84228C8.813,0.84863,8.87845.85156,8.94192,0.85156A2.074,2.074,0,0,0,9.40384.8081V2.13378A0.38063,0.38063,0,0,0,9.44974,2.34621Z" transform="translate(0)"/>
    <path d="M11.02884,2.26611a0.62287,0.62287,0,0,1-.2085.18555,0.60268,0.60268,0,0,1-.2998.07178,0.76256,0.76256,0,0,1-.37744-0.09277,0.65023,0.65023,0,0,1-.26273-0.28419,1.05556,1.05556,0,0,1-.09668-0.47754,1.02419,1.02419,0,0,1,.10107-0.4751A0.693,0.693,0,0,1,10.16312.89892a0.80593,0.80593,0,0,1,.40525-0.1001,0.91569,0.91569,0,0,1,.22115.02588,0.6189,0.6189,0,0,1,.1748.06836,0.38442,0.38442,0,0,1,.12744.12793,0.32328,0.32328,0,0,1,.04541.169,0.24768,0.24768,0,0,1-.07031.18311,0.27169,0.27169,0,0,1-.35693.00684A0.224,0.224,0,0,1,10.644,1.21a0.2433,0.2433,0,0,1,.06055-0.165A0.29484,0.29484,0,0,1,10.85306.95068,0.17052,0.17052,0,0,0,10.77637.8955,0.30633,0.30633,0,0,0,10.6626.8745a0.2874,0.2874,0,0,0-.21823.09671,0.62,0.62,0,0,0-.13672.26611,1.4501,1.4501,0,0,0-.04639.38672,0.99573,0.99573,0,0,0,.05859.374,0.42093,0.42093,0,0,0,.15283.20215,0.37684,0.37684,0,0,0,.2085.06055,0.47512,0.47512,0,0,0,.21826-0.05664,0.52627,0.52627,0,0,0,.19775-0.19971l0.05225,0.01855A0.85712,0.85712,0,0,1,11.02884,2.26611Z" transform="translate(0)"/>
    <path d="M12.12845,0.93652A0.24,0.24,0,0,0,11.93314.86084a0.40585,0.40585,0,0,0-.124.01953A0.25177,0.25177,0,0,0,11.70758.938a0.28385,0.28385,0,0,1,.13721.0918,0.245,0.245,0,0,1,.04932.15723,0.22107,0.22107,0,0,1-.03125.1167,0.22554,0.22554,0,0,1-.09033.08154,0.29291,0.29291,0,0,1-.13477.03027,0.20662,0.20662,0,0,1-.16312-0.06932,0.25681,0.25681,0,0,1-.061-0.1748A0.30232,0.30232,0,0,1,11.58987.90576,0.98554,0.98554,0,0,1,12.07181.79882a0.624,0.624,0,0,1,.4624.14258,0.33844,0.33844,0,0,1,.08936.165,1.27,1.27,0,0,1,.023.27686V2.24365a0.27184,0.27184,0,0,0,.01514.10889,0.05242,0.05242,0,0,0,.05176.03174,0.19786,0.19786,0,0,0,.11719-0.0542l0.03223,0.0542a0.47848,0.47848,0,0,1-.15723.08789A0.661,0.661,0,0,1,12.50152,2.5a0.31927,0.31927,0,0,1-.23193-0.0708,0.251,0.251,0,0,1-.0708-0.18555,0.50393,0.50393,0,0,1-.20264.19238,0.5806,0.5806,0,0,1-.26709.064,0.42549,0.42549,0,0,1-.28954-0.09473,0.33311,0.33311,0,0,1-.10889-0.26514,0.36978,0.36978,0,0,1,.10789-0.27344A0.9178,0.9178,0,0,1,11.774,1.67531c0.01611-.00635.06982-0.02686,0.16064-0.061a0.65572,0.65572,0,0,0,.19629-0.106A0.1587,0.1587,0,0,0,12.191,1.38917V1.14355A0.31649,0.31649,0,0,0,12.12845.93652Zm-0.00293.65283a1.45153,1.45153,0,0,1-.13086.08887,0.58025,0.58025,0,0,0-.15771.15674,0.388,0.388,0,0,0-.05713.21729,0.27227,0.27227,0,0,0,.0542.18457,0.18148,0.18148,0,0,0,.14209.061,0.25841,0.25841,0,0,0,.21484-0.12988V1.519A0.27432,0.27432,0,0,1,12.12552,1.58935Z" transform="translate(0)"/>
    <path d="M14.44827,2.12451a0.47973,0.47973,0,0,0,.02637.18506,0.141,0.141,0,0,0,.09473.07764,0.85971,0.85971,0,0,0,.21729.022v0.0693Q14.397,2.469,14.20706,2.46921q-0.09082,0-.499.00928V2.415a0.48668,0.48668,0,0,0,.15331-0.02441,0.11477,0.11477,0,0,0,.06543-0.07422A0.61321,0.61321,0,0,0,13.94437,2.143V0.57321A0.61164,0.61164,0,0,0,13.92679.40039,0.11477,0.11477,0,0,0,13.86137.32621,0.48668,0.48668,0,0,0,13.708.30175V0.23828c0.10648,0.00586.2666,0.00928,0.48048,0.00928q0.1267,0,.28125-0.00342c0.103-.002.1748-0.00293,0.21484-0.00293A1.3142,1.3142,0,0,1,15.169.31934a0.629,0.629,0,0,1,.29539.21874A0.56,0.56,0,0,1,15.562.86521a0.68589,0.68589,0,0,1-.08789.334,0.66866,0.66866,0,0,1-.2998.26709,1.246,1.246,0,0,1-.55908.10693h-0.167V2.12451Zm0.49121-.7793a0.8736,0.8736,0,0,0,.09766-0.4458A0.875,0.875,0,0,0,14.94583.44677a0.32853,0.32853,0,0,0-.30131-0.145,0.27719,0.27719,0,0,0-.126.022,0.11892,0.11892,0,0,0-.05566.0791,0.73042,0.73042,0,0,0-.01463.17034V1.50976H14.584a0.37738,0.37738,0,0,0,.35555-0.16455h0Z" transform="translate(0)"/>
    <path d="M16.17581,1.64892a0.89465,0.89465,0,0,0,.05859.34814,0.4496,0.4496,0,0,0,.15234.20264,0.34929,0.34929,0,0,0,.2002.064,0.47582,0.47582,0,0,0,.41843-0.25349l0.0557,0.01859a0.7903,0.7903,0,0,1-.12451.2417,0.65473,0.65473,0,0,1-.21289.18262,0.60487,0.60487,0,0,1-.29443.07031,0.76958,0.76958,0,0,1-.38232-0.09277,0.62407,0.62407,0,0,1-.2564-0.28223,1.06738,1.06738,0,0,1-.0923-0.47022,1.07285,1.07285,0,0,1,.0991-0.48437,0.68,0.68,0,0,1,.27344-0.2959A0.80426,0.80426,0,0,1,16.47415.79882a0.57772,0.57772,0,0,1,.59473.70166H16.18069C16.17728,1.53121,16.17581,1.581,16.17581,1.64892Zm0.44434-.61963a0.19018,0.19018,0,0,0-.166-0.16408,0.2184,0.2184,0,0,0-.188.14014,1.09882,1.09882,0,0,0-.0918.43506h0.49607A1.24108,1.24108,0,0,0,16.62015,1.02929Z" transform="translate(0)"/>
    <path d="M17.916,2.32226a0.12144,0.12144,0,0,0,.06348.06982,0.297,0.297,0,0,0,.11963.02V2.47851q-0.32739-.01245-0.42334-0.01221-0.10986,0-.437.01221V2.4121a0.29032,0.29032,0,0,0,.11865-0.02A0.12469,0.12469,0,0,0,17.421,2.32228a0.37886,0.37886,0,0,0,.02-0.13721V0.38037A0.38336,0.38336,0,0,0,17.39552.168,0.17783,0.17783,0,0,0,17.2388.102V0.03564c0.06689,0.00635.13232,0.00928,0.1958,0.00928A1.97749,1.97749,0,0,0,17.897,0V2.185A0.393,0.393,0,0,0,17.916,2.32226Z" transform="translate(0)"/>
    <path d="M19.857,2.34621a0.17669,0.17669,0,0,0,.15674.06592V2.47851q-0.09888-.00945-0.19633-0.0093a1.99672,1.99672,0,0,0-.46191.04492V2.228a0.51822,0.51822,0,0,1-.50977.29541A0.43691,0.43691,0,0,1,18.501,2.39987a0.34376,0.34376,0,0,1-.07471-0.15625,1.16238,1.16238,0,0,1-.02246-0.25488V1.187a0.379,0.379,0,0,0-.0459-0.2119A0.17574,0.17574,0,0,0,18.2012.90869V0.84228c0.06689,0.00635.13232,0.00928,0.19632,0.00928A2.074,2.074,0,0,0,18.85937.8081V2.11865a0.39671,0.39671,0,0,0,.03955.19824,0.15756,0.15756,0,0,0,.14893.06738,0.26284,0.26284,0,0,0,.15381-0.04883,0.34166,0.34166,0,0,0,.1123-0.13281,0.41293,0.41293,0,0,0,.0415-0.186V1.187A0.3837,0.3837,0,0,0,19.31009.97509a0.17725,0.17725,0,0,0-.15723-0.0664V0.84228c0.06738,0.00635.13281,0.00928,0.19629,0.00928A2.074,2.074,0,0,0,19.81107.8081V2.13378A0.38064,0.38064,0,0,0,19.857,2.34621Z" transform="translate(0)"/>
    <path d="M20.416,0.53613A0.578,0.578,0,0,1,20.56692.30761a0.63988,0.63988,0,0,1,.22413-0.1304A0.86072,0.86072,0,0,1,21.08352.12988a0.64616,0.64616,0,0,1,.23242.041A0.46,0.46,0,0,1,21.49173.289,0.59018,0.59018,0,0,1,21.59137.16259a0.51269,0.51269,0,0,1,.1875-0.11523A0.69509,0.69509,0,0,1,22.02493.00341a0.553,0.553,0,0,1,.33984.105A0.3154,0.3154,0,0,1,22.4429.209a0.31561,0.31561,0,0,1,.0293.13721,0.20909,0.20909,0,0,1-.0293.10742,0.19867,0.19867,0,0,1-.08008.08058A0.22027,0.22027,0,0,1,22.24759.564,0.24765,0.24765,0,0,1,22.07376.50488,0.20829,0.20829,0,0,1,22.00737.34033a0.22626,0.22626,0,0,1,.04883-0.146A0.24947,0.24947,0,0,1,22.1929.10546,0.06885,0.06885,0,0,0,22.15384.07275,0.20036,0.20036,0,0,0,22.07962.06054a0.18921,0.18921,0,0,0-.17187.0835,0.35041,0.35041,0,0,0-.04688.13817,2.35168,2.35168,0,0,0-.01172.27588V0.84521H22.187V0.90869H21.84915V2.15234a0.24194,0.24194,0,0,0,.07227.20313,0.37328,0.37328,0,0,0,.22461.05664v0.0664q-0.44531-.01245-0.54492-0.01221-0.09668,0-.41016.01221V2.4121a0.29935,0.29935,0,0,0,.11914-0.02,0.1169,0.1169,0,0,0,.0625-0.06982,0.36981,0.36981,0,0,0,.01953-0.13721V0.90869H20.84037V2.185a0.38028,0.38028,0,0,0,.01953.13721,0.12153,0.12153,0,0,0,.0625.06982,0.29993,0.29993,0,0,0,.12109.02V2.47851q-0.34717-.01245-0.438-0.01221-0.10986,0-.46191.01221V2.4121a0.34425,0.34425,0,0,0,.13037-0.02,0.1271,0.1271,0,0,0,.06885-0.06982,0.346,0.346,0,0,0,.02148-0.13721V0.90869H20.13137V0.84521h0.23291A0.88834,0.88834,0,0,1,20.416.53613Zm1.04447-.18359A0.36459,0.36459,0,0,0,21.32181.24072a0.42558,0.42558,0,0,0-.1875-0.041,0.25572,0.25572,0,0,0-.22363.1001,0.56609,0.56609,0,0,0-.07031.31834V0.84521h0.55176A1.36239,1.36239,0,0,1,21.46052.35253h0Z" transform="translate(0)"/>
    <path d="M23.63037,1.00585a0.9,0.9,0,0,1,.207.65674,0.89354,0.89354,0,0,1-.207.6543,0.88393,0.88393,0,0,1-1.13574,0,0.88936,0.88936,0,0,1-.207-0.6543,0.89628,0.89628,0,0,1,.207-0.65576A0.88074,0.88074,0,0,1,23.63037,1.00585Zm-0.78418.05273a1.673,1.673,0,0,0-.08105.604,1.6549,1.6549,0,0,0,.08105.60107,0.25214,0.25214,0,0,0,.2168.19629,0.24959,0.24959,0,0,0,.2168-0.19531,1.70393,1.70393,0,0,0,.08008-0.60205,1.7225,1.7225,0,0,0-.08008-0.605A0.25015,0.25015,0,0,0,23.063.8608a0.2527,0.2527,0,0,0-.21677.19779h0Z" transform="translate(0)"/>
    <path d="M27.32181,1.00537a1.12654,1.12654,0,0,1-.47852.19824l-0.05859.02051a0.4454,0.4454,0,0,1,.21875.20166,0.6599,0.6599,0,0,1,.07617.32178,0.62972,0.62972,0,0,1-.13672.39795,0.89043,0.89043,0,0,1-.38477.27734,1.50531,1.50531,0,0,1-.56934.10059,1.79753,1.79753,0,0,1-.61133-0.0957,0.90916,0.90916,0,0,1-.40918-0.27441,0.6481,0.6481,0,0,1-.14453-0.418A0.56991,0.56991,0,0,1,24.938,1.374a0.79307,0.79307,0,0,1,.25781-0.22363,1.26851,1.26851,0,0,1,.27055-0.10887A0.45543,0.45543,0,0,1,25.108.64306,0.31489,0.31489,0,0,1,25.19681.41992,0.55261,0.55261,0,0,1,25.43021.2793,0.98171,0.98171,0,0,1,25.7388.23193,0.95956,0.95956,0,0,1,25.93216.248a0.50391,0.50391,0,0,1,.13574.05029,0.28872,0.28872,0,0,1,.19336.25635,0.19048,0.19048,0,0,1-.0332.10938,0.22926,0.22926,0,0,1-.08984.07328,0.28448,0.28448,0,0,1-.12109.02637,0.26652,0.26652,0,0,1-.166-0.05029,0.174,0.174,0,0,1-.06445-0.146A0.21042,0.21042,0,0,1,25.84329.42285,0.23957,0.23957,0,0,1,25.9888.34321a0.21507,0.21507,0,0,0-.085-0.041A0.461,0.461,0,0,0,25.7788.2861a0.43588,0.43588,0,0,0-.20113.04641,0.342,0.342,0,0,0-.1416.1397,0.45782,0.45782,0,0,0-.0527.228,0.472,0.472,0,0,0,.124.32275A0.9389,0.9389,0,0,1,25.68509.99853a0.1384,0.1384,0,0,1,.08594.02295,0.0744,0.0744,0,0,1,.03125.062,0.05806,0.05806,0,0,1-.02539.04785,0.11033,0.11033,0,0,1-.06445.01855,0.21825,0.21825,0,0,1-.08692-0.01953,0.68677,0.68677,0,0,1-.07616-0.03856L25.5103,1.06786a0.67225,0.67225,0,0,0-.248.20313,0.51231,0.51231,0,0,0-.08789.30811,0.5095,0.5095,0,0,0,.24512.46045,1.269,1.269,0,0,0,.67969.15479,1.36783,1.36783,0,0,0,.41992-0.06445,0.79325,0.79325,0,0,0,.32617-0.189,0.40929,0.40929,0,0,0,.125-0.29834A0.41056,0.41056,0,0,0,26.729,1.23921c-0.06055.01855-.13086,0.03906-0.21094,0.061-0.08008.02246-.13574,0.03857-0.16895,0.04883a2.27359,2.27359,0,0,0-.28711.07959,0.49871,0.49871,0,0,0-.168.0957,0.17371,0.17371,0,0,0-.05762.13232,0.19833,0.19833,0,0,0,.0498.1333,0.3297,0.3297,0,0,0,.12988.08984,0.43862,0.43862,0,0,0,.16309.03174,0.34079,0.34079,0,0,0,.07227-0.00928,0.11272,0.11272,0,0,0,.05273-0.022A0.2285,0.2285,0,0,1,26.187,1.80017a0.2054,0.2054,0,0,1-.04-0.12842,0.18407,0.18407,0,0,1,.07031-0.15283,0.28858,0.28858,0,0,1,.18262-0.05566,0.25928,0.25928,0,0,1,.17871.05859,0.1993,0.1993,0,0,1,.06543.15625,0.23269,0.23269,0,0,1-.127.21484,0.64,0.64,0,0,1-.32227.07227,0.61126,0.61126,0,0,1-.23826-0.04443,0.37817,0.37817,0,0,1-.16992-0.13623,0.384,0.384,0,0,1-.06348-0.22412,0.45048,0.45048,0,0,1,.18066-0.37549,1.274,1.274,0,0,1,.52734-0.207c0.03906-.01025.1094-0.02734,0.21094-0.05225,0.10254-.0249.18945-0.04932,0.26172-0.07422A1.32594,1.32594,0,0,0,27.26419.72021,0.20818,0.20818,0,0,0,27.38137.53955,0.23774,0.23774,0,0,0,27.32962.39111,0.34914,0.34914,0,0,0,27.19485.28759,0.411,0.411,0,0,0,27.023.25048a0.21422,0.21422,0,0,0-.0918.01563,0.2463,0.2463,0,0,1,.11426.0835,0.19256,0.19256,0,0,1,.041.11572,0.17935,0.17935,0,0,1-.07127.14888,0.29133,0.29133,0,0,1-.18265.05518,0.27029,0.27029,0,0,1-.1777-0.0566A0.19,0.19,0,0,1,26.58743.459,0.22151,0.22151,0,0,1,26.69388.26464,0.519,0.519,0,0,1,26.98294.19335a0.60973,0.60973,0,0,1,.26172.05322,0.40757,0.40757,0,0,1,.17671.15479,0.44241,0.44241,0,0,1,.06348.23877A0.44571,0.44571,0,0,1,27.32181,1.00537Z" transform="translate(0)"/>
    <path d="M29.12064,2.12451a0.47973,0.47973,0,0,0,.02637.18506,0.13992,0.13992,0,0,0,.09473.07764,0.86134,0.86134,0,0,0,.21777.022v0.0693q-0.38966-.00951-0.58009-0.0093c-0.06055,0-.22656.00293-0.499,0.00928V2.415a0.48667,0.48667,0,0,0,.15332-0.02441,0.116,0.116,0,0,0,.06543-0.07422A0.61321,0.61321,0,0,0,28.61675,2.143V0.57321a0.61161,0.61161,0,0,0-.0176-0.17282A0.116,0.116,0,0,0,28.53372.32621,0.4867,0.4867,0,0,0,28.38037.30175V0.23828c0.10645,0.00586.2666,0.00928,0.48047,0.00928q0.1275,0,.28125-0.00342c0.10352-.002.1748-0.00293,0.21484-0.00293a1.3142,1.3142,0,0,1,.48444.07812,0.625,0.625,0,0,1,.29492.21875,0.55726,0.55726,0,0,1,.0986.32713,0.68589,0.68589,0,0,1-.08789.334,0.67653,0.67653,0,0,1-.2998.26709,1.24965,1.24965,0,0,1-.55957.10693h-0.167V2.12451h0Zm0.49121-.7793a0.86865,0.86865,0,0,0,.09767-0.4458,0.86458,0.86458,0,0,0-.0918-0.45264,0.32768,0.32768,0,0,0-.30078-0.145,0.27719,0.27719,0,0,0-.126.022,0.11893,0.11893,0,0,0-.05566.0791,0.73052,0.73052,0,0,0-.01462.17034V1.50976h0.13573A0.37738,0.37738,0,0,0,29.61185,1.34521Z" transform="translate(0)"/>
    <path d="M31.15189,0.93652A0.23936,0.23936,0,0,0,30.95652.86084a0.40583,0.40583,0,0,0-.124.01953A0.25177,0.25177,0,0,0,30.731.938a0.28767,0.28767,0,0,1,.1377.0918,0.25057,0.25057,0,0,1,.04881.1572,0.21322,0.21322,0,0,1-.12207.19824,0.29023,0.29023,0,0,1-.13379.03027,0.20457,0.20457,0,0,1-.16314-0.0693,0.25479,0.25479,0,0,1-.06152-0.1748A0.3011,0.3011,0,0,1,30.6138.90576,0.98094,0.98094,0,0,1,31.09525.79882a0.622,0.622,0,0,1,.46191.14258,0.33146,0.33146,0,0,1,.08984.165,1.26473,1.26473,0,0,1,.02344.27686V2.24365a0.28319,0.28319,0,0,0,.01465.10889,0.052,0.052,0,0,0,.05176.03174,0.19546,0.19546,0,0,0,.11719-0.0542l0.03223,0.0542a0.4736,0.4736,0,0,1-.15723.08789,0.661,0.661,0,0,1-.2041.02783,0.3164,0.3164,0,0,1-.23142-0.0708,0.24947,0.24947,0,0,1-.07129-0.18555,0.50584,0.50584,0,0,1-.20215.19238,0.584,0.584,0,0,1-.26756.064,0.42942,0.42942,0,0,1-.29-0.09473,0.33436,0.33436,0,0,1-.1084-0.26514,0.37016,0.37016,0,0,1,.1084-0.27344,0.90689,0.90689,0,0,1,.335-0.19141l0.16016-.061a0.64339,0.64339,0,0,0,.19629-0.106,0.15933,0.15933,0,0,0,.06045-0.11915V1.14355A0.31378,0.31378,0,0,0,31.15189.93652ZM31.149,1.58935a1.38382,1.38382,0,0,1-.13086.08887,0.585,0.585,0,0,0-.15723.15674,0.38806,0.38806,0,0,0-.05762.21729,0.27229,0.27229,0,0,0,.05469.18457,0.17907,0.17907,0,0,0,.1416.061A0.25779,0.25779,0,0,0,31.21437,2.168V1.519A0.28338,0.28338,0,0,1,31.149,1.58935Z" transform="translate(0)"/>
    <path d="M32.81009,0.8833A0.419,0.419,0,0,1,33.06692.79882a0.29071,0.29071,0,0,1,.16113.042,0.25611,0.25611,0,0,1,.0957.10742,0.32787,0.32787,0,0,1,.03125.14111,0.27534,0.27534,0,0,1-.06836.19189,0.23238,0.23238,0,0,1-.17969.07422A0.24789,0.24789,0,0,1,32.937,1.30028a0.185,0.185,0,0,1-.0625-0.14746A0.28839,0.28839,0,0,1,33.01321.90576,0.15845,0.15845,0,0,0,32.97415.90087a0.20057,0.20057,0,0,0-.04878.00782,0.27065,0.27065,0,0,0-.14746.07666,0.45918,0.45918,0,0,0-.10352.15381,0.44292,0.44292,0,0,0-.03809.17432V2.15234a0.24473,0.24473,0,0,0,.07129.20313,0.364,0.364,0,0,0,.22656.05664v0.0664c-0.26363-.0083-0.43163-0.01221-0.50293-0.01221-0.06738,0-.21875.00391-0.45312,0.01221V2.4121a0.30126,0.30126,0,0,0,.12012-0.02,0.11994,0.11994,0,0,0,.0625-0.06982,0.36985,0.36985,0,0,0,.01953-0.13721V1.187A0.38169,0.38169,0,0,0,32.13533.9746,0.17537,0.17537,0,0,0,31.97806.90869V0.84228c0.06641,0.00635.13184,0.00928,0.19629,0.00928A2.05285,2.05285,0,0,0,32.63626.8081V1.102A0.53756,0.53756,0,0,1,32.81009.8833Z" transform="translate(0)"/>
    <path d="M34.47317,0.84521V0.90869h-0.374V2.185a0.19961,0.19961,0,0,0,.03418.1333,0.13026,0.13026,0,0,0,.10449.03955A0.24906,0.24906,0,0,0,34.45268,2.168l0.05369,0.0293a0.43553,0.43553,0,0,1-.43262.32617,0.4287,0.4287,0,0,1-.31641-0.1084,0.3402,0.3402,0,0,1-.09082-0.16459,1.2641,1.2641,0,0,1-.02344-0.27588V0.90869H33.37752V0.84521h0.26563V0.42529a0.97238,0.97238,0,0,0,.456-0.10208v0.522h0.374Z" transform="translate(0)"/>
    <path d="M35.74661,0.79882a0.61439,0.61439,0,0,1,.21191.03125,0.33306,0.33306,0,0,1,.13574.09082,0.37667,0.37667,0,0,1,.0752.15625,1.12141,1.12141,0,0,1,.02344.25635V2.185a0.39133,0.39133,0,0,0,.01953.13721,0.12815,0.12815,0,0,0,.06348.06982,0.29286,0.29286,0,0,0,.11914.02V2.47851c-0.21-.0083-0.34961-0.01221-0.417-0.01221-0.06543,0-.20215.00391-0.41309,0.01221V2.4121a0.21821,0.21821,0,0,0,.10254-0.02,0.11636,0.11636,0,0,0,.05273-0.06982,0.42727,0.42727,0,0,0,.0166-0.13721V1.20068a0.36892,0.36892,0,0,0-.042-0.19629A0.17,0.17,0,0,0,35.54052.938a0.28045,0.28045,0,0,0-.1582.04785,0.33052,0.33052,0,0,0-.11328.13232,0.4069,0.4069,0,0,0-.042.186V2.185a0.45687,0.45687,0,0,0,.0166.13721,0.11888,0.11888,0,0,0,.05469.06982,0.21224,0.21224,0,0,0,.10059.02V2.47851q-0.2915-.01245-0.39258-0.01221c-0.06543,0-.21094.00391-0.4375,0.01221V2.4121a0.30126,0.30126,0,0,0,.12012-0.02,0.11994,0.11994,0,0,0,.0625-0.06982A0.36985,0.36985,0,0,0,34.771,2.18507V1.187A0.38169,0.38169,0,0,0,34.72608.9746a0.17537,0.17537,0,0,0-.1572-0.06592V0.84228c0.06641,0.00635.13184,0.00928,0.19629,0.00928A2.05283,2.05283,0,0,0,35.22708.8081V1.09277A0.52645,0.52645,0,0,1,35.74661.79882Z" transform="translate(0)"/>
    <path d="M37.02982,1.64892a0.89461,0.89461,0,0,0,.05859.34814,0.4496,0.4496,0,0,0,.15234.20264,0.34634,0.34634,0,0,0,.19922.064,0.4749,0.4749,0,0,0,.419-0.25349l0.05566,0.01855a0.78883,0.78883,0,0,1-.124.2417,0.66337,0.66337,0,0,1-.21387.18262,0.603,0.603,0,0,1-.29395.07031A0.77147,0.77147,0,0,1,36.9,2.43062a0.62849,0.62849,0,0,1-.25586-0.28223,1.06767,1.06767,0,0,1-.0918-0.47021A1.06654,1.06654,0,0,1,36.651,1.19381a0.67718,0.67718,0,0,1,.2734-0.29587,0.80426,0.80426,0,0,1,.4033-0.09912,0.57772,0.57772,0,0,1,.59473.70166H37.03372C37.03079,1.53121,37.02982,1.581,37.02982,1.64892Zm0.44336-.61963a0.18974,0.18974,0,0,0-.166-0.16408,0.2178,0.2178,0,0,0-.1875.14014,1.10755,1.10755,0,0,0-.0918.43506H37.524A1.22739,1.22739,0,0,0,37.47318,1.02929Z" transform="translate(0)"/>
    <path d="M38.91852,0.8833A0.419,0.419,0,0,1,39.17537.79882a0.29071,0.29071,0,0,1,.16113.042,0.25611,0.25611,0,0,1,.0957.10742,0.32789,0.32789,0,0,1,.03117.14111,0.27534,0.27534,0,0,1-.06836.19189,0.23238,0.23238,0,0,1-.17969.07422,0.24789,0.24789,0,0,1-.16992-0.05518,0.185,0.185,0,0,1-.0625-0.14746A0.2884,0.2884,0,0,1,39.12161.90576,0.15843,0.15843,0,0,0,39.08252.90087a0.20057,0.20057,0,0,0-.04883.00781,0.27065,0.27065,0,0,0-.14746.07666,0.45918,0.45918,0,0,0-.10352.15381,0.44292,0.44292,0,0,0-.03809.17432V2.15234a0.24473,0.24473,0,0,0,.07129.20313,0.364,0.364,0,0,0,.22656.05664v0.0664c-0.26364-.0083-0.43161-0.01221-0.50295-0.01221-0.06738,0-.21875.00391-0.45312,0.01221V2.4121a0.30126,0.30126,0,0,0,.12012-0.02,0.11994,0.11994,0,0,0,.0625-0.06982,0.36985,0.36985,0,0,0,.01953-0.13721V1.187A0.38169,0.38169,0,0,0,38.24363.9746,0.17537,0.17537,0,0,0,38.08646.90869V0.84228c0.06641,0.00635.13184,0.00928,0.19629,0.00928A2.05285,2.05285,0,0,0,38.74466.8081V1.102A0.53758,0.53758,0,0,1,38.91852.8833Z" transform="translate(0)"/>
    <path d="M39.84622,2.29638a0.32857,0.32857,0,0,0,.291.1543,0.23507,0.23507,0,0,0,.1582-0.05615,0.2107,0.2107,0,0,0,.06543-0.16943,0.31363,0.31363,0,0,0-.03906-0.15771,0.49464,0.49464,0,0,0-.09961-0.12354c-0.04-.03613-0.10059-0.08545-0.18066-0.14844-0.09766-.0791-0.17187-0.1416-0.2207-0.18652a0.66117,0.66117,0,0,1-.126-0.16162,0.43565,0.43565,0,0,1-.05176-0.2124A0.3778,0.3778,0,0,1,39.71732,1a0.45038,0.45038,0,0,1,.1992-0.1499A0.70734,0.70734,0,0,1,40.188.79882a0.766,0.766,0,0,1,.2207.02979,0.56513,0.56513,0,0,1,.1582.06787A0.10158,0.10158,0,0,0,40.62258.918c0.03906,0,.06348-0.03857.07422-0.11572h0.06934c-0.00879.106-.0127,0.2915-0.0127,0.55615H40.68411a0.796,0.796,0,0,0-.124-0.34863A0.31924,0.31924,0,0,0,40.27884.86865a0.22207,0.22207,0,0,0-.1543.0542,0.18824,0.18824,0,0,0-.05957.148,0.26451,0.26451,0,0,0,.07031.18408,1.09446,1.09446,0,0,0,.17188.14844c0.06738,0.04736.11621,0.08252,0.14648,0.10645a2.31024,2.31024,0,0,1,.20605.16992,0.617,0.617,0,0,1,.125.16455,0.44771,0.44771,0,0,1,.04785.21094,0.396,0.396,0,0,1-.08105.24561,0.5242,0.5242,0,0,1-.21875.16455,0.77129,0.77129,0,0,1-.30176.05811A0.61768,0.61768,0,0,1,39.938,2.457a1.21264,1.21264,0,0,0-.14846-0.06641l-0.01558-.00342c-0.03418,0-.05859.0376-0.07422,0.11279H39.63037c0.00781-.12061.0127-0.331,0.0127-0.63184h0.06934A0.97175,0.97175,0,0,0,39.84622,2.29638Z" transform="translate(0)"/>
    <path class="cls-1" d="M12.93265,5.92431l-0.11279-.31445H12.38577l-0.11084.31445H12.07962l0.42432-1.13867H12.7056l0.42431,1.13867H12.93265ZM12.77052,5.4497l-0.106-.30859C12.65675,5.1206,12.646,5.0874,12.63235,5.04345,12.61868,4.99853,12.60891,4.9663,12.604,4.94579a1.76934,1.76934,0,0,1-.06152.208l-0.102.2959h0.33Z" transform="translate(0)"/>
    <path class="cls-1" d="M13.94144,5.47121v0.4531H13.75637V4.78955h0.32031a0.52658,0.52658,0,0,1,.32471.083,0.29514,0.29514,0,0,1,.10547.248,0.30937,0.30937,0,0,1-.22021.30176l0.32031,0.502H14.396l-0.27151-.4531H13.94144Zm0-.15332h0.12893A0.298,0.298,0,0,0,14.25787,5.27a0.17533,0.17533,0,0,0,.05859-0.14355,0.154,0.154,0,0,0-.063-0.1377,0.3415,0.3415,0,0,0-.18945-0.042H13.94144V5.31789Z" transform="translate(0)"/>
    <path class="cls-1" d="M15.73052,4.9331a0.30688,0.30688,0,0,0-.25146.11328,0.48326,0.48326,0,0,0-.09131.3125,0.48778,0.48778,0,0,0,.08789.31543,0.31124,0.31124,0,0,0,.25488.10742,0.65784,0.65784,0,0,0,.13965-0.01465c0.04492-.00977.0918-0.02148,0.14014-0.03711V5.88916a0.83663,0.83663,0,0,1-.30225.05078,0.48522,0.48522,0,0,1-.38281-0.15137,0.63093,0.63093,0,0,1-.1333-0.43164,0.69756,0.69756,0,0,1,.06494-0.30957,0.4612,0.4612,0,0,1,.1875-0.20315A0.56671,0.56671,0,0,1,15.732,4.7739a0.72608,0.72608,0,0,1,.32129.07227l-0.06689.15529a0.8997,0.8997,0,0,0-.12158-0.04785A0.43635,0.43635,0,0,0,15.73052,4.9331Z" transform="translate(0)"/>
    <path class="cls-1" d="M17.62552,5.92431h-0.186V5.41357h-0.523V5.92431h-0.185V4.78955h0.185V5.25439h0.523V4.78955h0.186V5.92431h0Z" transform="translate(0)"/>
    <path class="cls-1" d="M18.40137,5.92431V4.78955h0.18506V5.92431H18.40137Z" transform="translate(0)"/>
    <path class="cls-1" d="M19.75442,5.92431H19.56888V4.9497H19.23537V4.78955h0.85254V4.9497h-0.3335V5.92431h0Z" transform="translate(0)"/>
    <path class="cls-1" d="M21.38037,5.92431H20.73831V4.78955h0.64206V4.94677H20.92288v0.3086H21.3511V5.41064H20.92288V5.76709h0.45749V5.92431Z" transform="translate(0)"/>
    <path class="cls-1" d="M22.49271,5.92431H22.30814V4.9497h-0.334V4.78955h0.85254V4.9497h-0.334V5.92431h0Z" transform="translate(0)"/>
    <path class="cls-1" d="M23.86868,5.92431H23.68411V4.9497h-0.334V4.78955h0.85256V4.9497h-0.334V5.92431Z" transform="translate(0)"/>
    <path class="cls-1" d="M25.74173,4.78955V5.52392a0.43147,0.43147,0,0,1-.05469.21973,0.35577,0.35577,0,0,1-.15527.14551,0.53938,0.53938,0,0,1-.24414.05078,0.45742,0.45742,0,0,1-.32811-0.11133,0.40693,0.40693,0,0,1-.1172-0.30761V4.78955h0.18652V5.50732a0.29164,0.29164,0,0,0,.06445.208,0.27186,0.27186,0,0,0,.2002.06641,0.23809,0.23809,0,0,0,.2627-0.27539V4.78955h0.18554Z" transform="translate(0)"/>
    <path class="cls-1" d="M26.69388,5.47121v0.4531H26.50837V4.78955h0.32031a0.52721,0.52721,0,0,1,.3252.083,0.29514,0.29514,0,0,1,.10547.248,0.30951,0.30951,0,0,1-.21973.30176l0.32031,0.502h-0.211l-0.27149-.4531H26.69388Zm0-.15332h0.12891A0.29993,0.29993,0,0,0,27.01029,5.27a0.17533,0.17533,0,0,0,.05859-0.14355,0.15426,0.15426,0,0,0-.06348-0.1377,0.33675,0.33675,0,0,0-.18848-0.042h-0.123V5.31787Z" transform="translate(0)"/>
    <path class="cls-1" d="M28.80652,5.92431l-0.11279-.31445H28.25962l-0.11084.31445H27.95346l0.42432-1.13867h0.20166l0.42431,1.13867H28.80652ZM28.64438,5.4497l-0.106-.30859c-0.00776-.02051-0.01851-0.05371-0.03217-0.09766-0.01369-.04492-0.02344-0.07715-0.02832-0.09766a1.76953,1.76953,0,0,1-.06152.208l-0.102.2959h0.33Z" transform="translate(0)"/>
  </g>
</svg>
