<svg id="Livello_1" data-name="Livello 1" xmlns="http://www.w3.org/2000/svg" viewBox="0 0 40.83264 5.94086">
  <defs>
    <style>
      .cls-1 {
        fill: #fff;
      }

      .cls-2 {
        fill: #999;
      }
    </style>
  </defs>
  <title>logo_negativo2</title>
  <g>
    <path class="cls-1" d="M1.88525,2.355a0.07383,0.07383,0,0,0-.06494-0.05713,0.42213,0.42213,0,0,0-.17139.06641,1.04569,1.04569,0,0,1-.51953.15918A1.296,1.296,0,0,1,.51172,2.38821,0.88618,0.88618,0,0,1,.12939,1.99707,1.34327,1.34327,0,0,1,0,1.3833,1.28972,1.28972,0,0,1,.146.75976,1.04113,1.04113,0,0,1,.55273.34179,1.17116,1.17116,0,0,1,1.145.19335,0.901,0.901,0,0,1,1.4751.24657a1.11665,1.11665,0,0,1,.26465.15234,0.11669,0.11669,0,0,0,.06347.0293A0.0583,0.0583,0,0,0,1.854.3833,0.55826,0.55826,0,0,0,1.88379.2383H1.95605q-0.01245.21458-.0122,0.76609H1.86963A1.47639,1.47639,0,0,0,1.79685.65771,0.51756,0.51756,0,0,0,1.6333.43115,0.53011,0.53011,0,0,0,1.4463.31787a0.65205,0.65205,0,0,0-.227-0.041A0.49255,0.49255,0,0,0,.85156.42721a0.91758,0.91758,0,0,0-.21728.398A1.96815,1.96815,0,0,0,.564,1.36476q0,1.095.60742,1.09521a0.36918,0.36918,0,0,0,.22412-0.06348A0.1541,0.1541,0,0,0,1.4541,2.33008a0.24663,0.24663,0,0,0,.01709-0.09863V1.92236a0.68983,0.68983,0,0,0-.0249-0.21729,0.15086,0.15086,0,0,0-.08887-0.09424A0.6825,0.6825,0,0,0,1.15285,1.5791v-0.063c0.12158,0.00684.30176,0.01074,0.54053,0.01074,0.19482,0,.33594-0.00391.42334-0.01074v0.063a0.19888,0.19888,0,0,0-.09229.02588,0.1115,0.1115,0,0,0-.03908.07222,1.02129,1.02129,0,0,0-.01074.17383V2.47851h-0.063A0.38949,0.38949,0,0,0,1.88525,2.355Z" transform="translate(0.00052)"/>
    <path class="cls-1" d="M2.94336,2.32226a0.12469,0.12469,0,0,0,.06348.06982,0.29031,0.29031,0,0,0,.11865.02V2.47851Q2.81055,2.46606,2.70556,2.4663q-0.10034,0-.44043.01221V2.4121a0.297,0.297,0,0,0,.11963-0.02,0.123,0.123,0,0,0,.06348-0.06982,0.393,0.393,0,0,0,.019-0.13721V1.187A0.38651,0.38651,0,0,0,2.42285.9746,0.17745,0.17745,0,0,0,2.26514.90869V0.84228C2.332,0.84863,2.39746.85156,2.46142,0.85156A2.04985,2.04985,0,0,0,2.92334.8081v1.377A0.37887,0.37887,0,0,0,2.94336,2.32226ZM2.88525,0.0913A0.21851,0.21851,0,0,1,2.96338.269a0.21949,0.21949,0,0,1-.07813.17918,0.3148,0.3148,0,0,1-.209.06494A0.31868,0.31868,0,0,1,2.46435.44821,0.22169,0.22169,0,0,1,2.38721.269,0.2207,0.2207,0,0,1,2.46435.0913,0.32133,0.32133,0,0,1,2.67627.02636,0.31745,0.31745,0,0,1,2.88525.0913Z" transform="translate(0.00052)"/>
    <path class="cls-1" d="M4.07519,0.93652A0.24,0.24,0,0,0,3.87985.86084a0.40585,0.40585,0,0,0-.124.01953A0.25177,0.25177,0,0,0,3.65429.938a0.28385,0.28385,0,0,1,.13721.0918,0.245,0.245,0,0,1,.04935.15722,0.22107,0.22107,0,0,1-.03125.1167,0.22554,0.22554,0,0,1-.09036.0815,0.29291,0.29291,0,0,1-.13477.03027,0.20662,0.20662,0,0,1-.16308-0.06927,0.25681,0.25681,0,0,1-.061-0.1748A0.30232,0.30232,0,0,1,3.53662.90576,0.98554,0.98554,0,0,1,4.01855.79882a0.624,0.624,0,0,1,.4624.14258,0.33844,0.33844,0,0,1,.08936.165,1.27,1.27,0,0,1,.023.27686V2.24365a0.27183,0.27183,0,0,0,.01514.10889,0.05242,0.05242,0,0,0,.05176.03174,0.19786,0.19786,0,0,0,.11719-0.0542l0.03223,0.0542a0.47846,0.47846,0,0,1-.15723.08789A0.661,0.661,0,0,1,4.44825,2.5a0.31927,0.31927,0,0,1-.23194-0.07079,0.251,0.251,0,0,1-.0708-0.18555,0.50393,0.50393,0,0,1-.20266.19237,0.5806,0.5806,0,0,1-.26709.064A0.42549,0.42549,0,0,1,3.38621,2.4053a0.33311,0.33311,0,0,1-.10889-0.26514,0.36978,0.36978,0,0,1,.10793-0.27347A0.9178,0.9178,0,0,1,3.7207,1.67528c0.01615-.00634.06983-0.02685,0.16065-0.06107a0.65572,0.65572,0,0,0,.19629-0.106A0.1587,0.1587,0,0,0,4.1377,1.38907V1.14355A0.31649,0.31649,0,0,0,4.07519.93652Zm-0.00293.65283a1.45175,1.45175,0,0,1-.13086.08887,0.58025,0.58025,0,0,0-.15771.15674,0.388,0.388,0,0,0-.05713.21729,0.27227,0.27227,0,0,0,.0542.18457,0.18148,0.18148,0,0,0,.14209.061A0.25841,0.25841,0,0,0,4.13769,2.168V1.519A0.27431,0.27431,0,0,1,4.07226,1.58935Z" transform="translate(0.00052)"/>
    <path class="cls-1" d="M6.07812,0.79882a0.61741,0.61741,0,0,1,.2124.03125,0.3281,0.3281,0,0,1,.13525.09082,0.36566,0.36566,0,0,1,.07568.15625,1.1216,1.1216,0,0,1,.02344.25635V2.185a0.36849,0.36849,0,0,0,.02.13721,0.12393,0.12393,0,0,0,.063.06982,0.29286,0.29286,0,0,0,.11914.02V2.47851Q6.41209,2.46606,6.31,2.4663q-0.09741,0-.4126.01221V2.4121a0.22014,0.22014,0,0,0,.102-0.02A0.117,0.117,0,0,0,6.0527,2.32228,0.45926,0.45926,0,0,0,6.06885,2.185V1.20068a0.36851,0.36851,0,0,0-.04248-0.19629A0.16909,0.16909,0,0,0,5.87256.938a0.28045,0.28045,0,0,0-.1582.04785,0.33543,0.33543,0,0,0-.11377.13232,0.41294,0.41294,0,0,0-.0415.186V2.185a0.42524,0.42524,0,0,0,.01709.13721,0.11946,0.11946,0,0,0,.05371.06982,0.21634,0.21634,0,0,0,.10059.02V2.47851C5.53662,2.47021,5.40625,2.4663,5.33785,2.4663q-0.09741,0-.437.01221V2.4121a0.297,0.297,0,0,0,.11963-0.02A0.123,0.123,0,0,0,5.084,2.32228a0.393,0.393,0,0,0,.019-0.13721V1.187A0.38651,0.38651,0,0,0,5.05859.9746,0.17745,0.17745,0,0,0,4.90085.90869V0.84228C4.96777,0.84863,5.0332.85156,5.09717,0.85156A2.04985,2.04985,0,0,0,5.55908.8081V1.09277A0.52619,0.52619,0,0,1,6.07812.79882Z" transform="translate(0.00052)"/>
    <path class="cls-1" d="M7.5083,2.32226a0.12145,0.12145,0,0,0,.06348.06982,0.297,0.297,0,0,0,.11963.02V2.47851Q7.364,2.46606,7.26806,2.4663q-0.10986,0-.437.01221V2.4121a0.29031,0.29031,0,0,0,.11865-0.02,0.12469,0.12469,0,0,0,.06348-0.06982,0.37888,0.37888,0,0,0,.02-0.13721V0.38037A0.38336,0.38336,0,0,0,6.98779.168,0.17783,0.17783,0,0,0,6.831.10205V0.03564C6.898,0.042,6.96338.04492,7.02685,0.04492A1.97749,1.97749,0,0,0,7.48925,0V2.185A0.393,0.393,0,0,0,7.5083,2.32226Z" transform="translate(0.00052)"/>
    <path class="cls-1" d="M9.44922,2.34621a0.17669,0.17669,0,0,0,.15674.06592V2.47851q-0.09888-.00945-0.19629-0.0093a1.99673,1.99673,0,0,0-.46191.04492V2.228a0.51822,0.51822,0,0,1-.50977.29541,0.43691,0.43691,0,0,1-.34473-0.12354,0.34376,0.34376,0,0,1-.07471-0.15624,1.16232,1.16232,0,0,1-.02246-0.25488V1.187A0.379,0.379,0,0,0,7.95019.97509,0.17574,0.17574,0,0,0,7.79346.90869V0.84228C7.86035,0.84863,7.92578.85156,7.98974,0.85156A2.074,2.074,0,0,0,8.45166.8081V2.11865a0.39672,0.39672,0,0,0,.03955.19824,0.15756,0.15756,0,0,0,.14893.06738,0.26284,0.26284,0,0,0,.15381-0.04883,0.34165,0.34165,0,0,0,.1123-0.13281,0.41293,0.41293,0,0,0,.0415-0.186V1.187A0.38371,0.38371,0,0,0,8.90234.97509,0.17725,0.17725,0,0,0,8.74512.90869V0.84228C8.8125,0.84863,8.87793.85156,8.9414,0.85156A2.074,2.074,0,0,0,9.40332.8081V2.13378A0.38063,0.38063,0,0,0,9.44922,2.34621Z" transform="translate(0.00052)"/>
    <path class="cls-1" d="M11.02832,2.26611a0.62287,0.62287,0,0,1-.2085.18555,0.60268,0.60268,0,0,1-.2998.07178,0.76256,0.76256,0,0,1-.37744-0.09277,0.65023,0.65023,0,0,1-.26273-0.28419,1.05556,1.05556,0,0,1-.09668-0.47754,1.02419,1.02419,0,0,1,.10107-0.4751A0.693,0.693,0,0,1,10.1626.89892a0.80593,0.80593,0,0,1,.40525-0.1001A0.91569,0.91569,0,0,1,10.789.8247a0.6189,0.6189,0,0,1,.1748.06836,0.38442,0.38442,0,0,1,.12744.12793,0.32328,0.32328,0,0,1,.04541.169,0.24768,0.24768,0,0,1-.07031.18311,0.27169,0.27169,0,0,1-.35693.00684A0.224,0.224,0,0,1,10.64353,1.21a0.2433,0.2433,0,0,1,.06055-0.165A0.29484,0.29484,0,0,1,10.85254.95068,0.17052,0.17052,0,0,0,10.77585.8955a0.30633,0.30633,0,0,0-.11377-0.021,0.2874,0.2874,0,0,0-.21823.09671,0.62,0.62,0,0,0-.13672.26611,1.4501,1.4501,0,0,0-.04639.38672,0.99573,0.99573,0,0,0,.05859.374,0.42093,0.42093,0,0,0,.15283.20215,0.37684,0.37684,0,0,0,.2085.06055,0.47512,0.47512,0,0,0,.21826-0.05664,0.52627,0.52627,0,0,0,.19775-0.19971l0.05225,0.01855A0.85712,0.85712,0,0,1,11.02832,2.26611Z" transform="translate(0.00052)"/>
    <path class="cls-1" d="M12.12793,0.93652A0.24,0.24,0,0,0,11.93262.86084a0.40585,0.40585,0,0,0-.124.01953A0.25177,0.25177,0,0,0,11.70706.938a0.28385,0.28385,0,0,1,.13721.0918,0.245,0.245,0,0,1,.04932.15723,0.22107,0.22107,0,0,1-.03125.1167,0.22554,0.22554,0,0,1-.09033.08154,0.29291,0.29291,0,0,1-.13477.03027,0.20662,0.20662,0,0,1-.16312-0.06932,0.25681,0.25681,0,0,1-.061-0.1748A0.30232,0.30232,0,0,1,11.58935.90576,0.98554,0.98554,0,0,1,12.07129.79882a0.624,0.624,0,0,1,.4624.14258,0.33844,0.33844,0,0,1,.08936.165,1.27,1.27,0,0,1,.023.27686V2.24365a0.27184,0.27184,0,0,0,.01514.10889,0.05242,0.05242,0,0,0,.05176.03174,0.19786,0.19786,0,0,0,.11719-0.0542l0.03223,0.0542a0.47847,0.47847,0,0,1-.15723.08789A0.661,0.661,0,0,1,12.501,2.5a0.31927,0.31927,0,0,1-.23193-0.0708,0.251,0.251,0,0,1-.0708-0.18555,0.50393,0.50393,0,0,1-.20264.19238,0.5806,0.5806,0,0,1-.26709.064A0.42549,0.42549,0,0,1,11.439,2.4053a0.33311,0.33311,0,0,1-.10889-0.26514A0.36978,0.36978,0,0,1,11.438,1.86672a0.9178,0.9178,0,0,1,.33545-0.19141c0.01611-.00635.06982-0.02686,0.16064-0.061a0.65572,0.65572,0,0,0,.19629-0.106,0.1587,0.1587,0,0,0,.06006-0.11914V1.14355A0.31649,0.31649,0,0,0,12.12793.93652ZM12.125,1.58935a1.45162,1.45162,0,0,1-.13086.08887,0.58025,0.58025,0,0,0-.15771.15674,0.388,0.388,0,0,0-.05713.21729,0.27227,0.27227,0,0,0,.0542.18457,0.18148,0.18148,0,0,0,.14209.061,0.25841,0.25841,0,0,0,.21484-0.12988V1.519A0.27432,0.27432,0,0,1,12.125,1.58935Z" transform="translate(0.00052)"/>
    <path class="cls-1" d="M14.44775,2.12451a0.47973,0.47973,0,0,0,.02637.18506,0.141,0.141,0,0,0,.09473.07764,0.85971,0.85971,0,0,0,.21729.022v0.0693q-0.38966-.00952-0.5796-0.0093-0.09082,0-.499.00928V2.415a0.48668,0.48668,0,0,0,.15331-0.02441,0.11477,0.11477,0,0,0,.06543-0.07422,0.61321,0.61321,0,0,0,.01757-0.17334V0.57321A0.61164,0.61164,0,0,0,13.92627.40039,0.11477,0.11477,0,0,0,13.86085.32621,0.48668,0.48668,0,0,0,13.70752.30175V0.23828C13.814,0.24414,13.97412.24756,14.188,0.24756q0.1267,0,.28125-0.00342c0.103-.002.1748-0.00293,0.21484-0.00293a1.3142,1.3142,0,0,1,.48438.07813,0.629,0.629,0,0,1,.29539.21874,0.56,0.56,0,0,1,.09767.32713,0.68589,0.68589,0,0,1-.08789.334,0.66866,0.66866,0,0,1-.2998.26709,1.246,1.246,0,0,1-.55908.10693h-0.167V2.12451Zm0.49121-.7793a0.8736,0.8736,0,0,0,.09766-0.4458A0.875,0.875,0,0,0,14.94531.44677,0.32853,0.32853,0,0,0,14.644.30177a0.27719,0.27719,0,0,0-.126.022,0.11892,0.11892,0,0,0-.05566.0791,0.73042,0.73042,0,0,0-.01463.17034V1.50976h0.13574A0.37738,0.37738,0,0,0,14.939,1.34521Z" transform="translate(0.00052)"/>
    <path class="cls-1" d="M16.17529,1.64892a0.89465,0.89465,0,0,0,.05859.34814,0.4496,0.4496,0,0,0,.15234.20264,0.34929,0.34929,0,0,0,.2002.064,0.47582,0.47582,0,0,0,.41843-0.25349l0.0557,0.01859a0.7903,0.7903,0,0,1-.12451.2417,0.65473,0.65473,0,0,1-.21289.18262,0.60487,0.60487,0,0,1-.29443.07031,0.76958,0.76958,0,0,1-.38232-0.09277A0.62407,0.62407,0,0,1,15.79,2.14843a1.06738,1.06738,0,0,1-.0923-0.47022,1.07285,1.07285,0,0,1,.0991-0.48437,0.68,0.68,0,0,1,.27344-0.2959A0.80426,0.80426,0,0,1,16.47363.79882a0.57772,0.57772,0,0,1,.59473.70166H16.18017C16.17676,1.53121,16.17529,1.581,16.17529,1.64892Zm0.44434-.61963a0.19018,0.19018,0,0,0-.166-0.16408,0.2184,0.2184,0,0,0-.188.14014,1.09882,1.09882,0,0,0-.0918.43506H16.6699A1.24113,1.24113,0,0,0,16.61963,1.02929Z" transform="translate(0.00052)"/>
    <path class="cls-1" d="M17.91553,2.32226a0.12144,0.12144,0,0,0,.06348.06982,0.297,0.297,0,0,0,.11963.02V2.47851Q17.77125,2.46606,17.6753,2.4663q-0.10986,0-.437.01221V2.4121a0.29032,0.29032,0,0,0,.11865-0.02,0.12469,0.12469,0,0,0,.06348-0.06982,0.37886,0.37886,0,0,0,.02-0.13721V0.38037A0.38337,0.38337,0,0,0,17.395.168,0.17783,0.17783,0,0,0,17.23828.10205V0.03564c0.06689,0.00635.13232,0.00928,0.1958,0.00928A1.97749,1.97749,0,0,0,17.89648,0V2.185A0.393,0.393,0,0,0,17.91553,2.32226Z" transform="translate(0.00052)"/>
    <path class="cls-1" d="M19.85644,2.34621a0.17669,0.17669,0,0,0,.15674.06592V2.47851q-0.09888-.00945-0.19633-0.0093a1.99672,1.99672,0,0,0-.46191.04492V2.228a0.51822,0.51822,0,0,1-.50977.29541,0.43691,0.43691,0,0,1-.34473-0.12354,0.34376,0.34376,0,0,1-.07471-0.15625,1.16238,1.16238,0,0,1-.02246-0.25488V1.187A0.379,0.379,0,0,0,18.35737.9751,0.17574,0.17574,0,0,0,18.20068.90869V0.84228C18.26757,0.84863,18.333.85156,18.397,0.85156A2.074,2.074,0,0,0,18.85885.8081V2.11865a0.39671,0.39671,0,0,0,.03955.19824,0.15756,0.15756,0,0,0,.14893.06738,0.26284,0.26284,0,0,0,.15381-0.04883,0.34166,0.34166,0,0,0,.1123-0.13281,0.41293,0.41293,0,0,0,.0415-0.186V1.187A0.3837,0.3837,0,0,0,19.30957.97509a0.17725,0.17725,0,0,0-.15723-0.0664V0.84228c0.06738,0.00635.13281,0.00928,0.19629,0.00928A2.074,2.074,0,0,0,19.81055.8081V2.13378A0.38064,0.38064,0,0,0,19.85644,2.34621Z" transform="translate(0.00052)"/>
    <path class="cls-1" d="M20.41553,0.53613A0.578,0.578,0,0,1,20.5664.30761a0.63988,0.63988,0,0,1,.22413-0.1304A0.86072,0.86072,0,0,1,21.083.12988a0.64617,0.64617,0,0,1,.23242.041A0.46,0.46,0,0,1,21.49121.289,0.59014,0.59014,0,0,1,21.59085.16259a0.51269,0.51269,0,0,1,.1875-0.11523A0.69509,0.69509,0,0,1,22.02441.00341a0.553,0.553,0,0,1,.33984.105A0.3154,0.3154,0,0,1,22.44238.209a0.31561,0.31561,0,0,1,.0293.13721,0.20909,0.20909,0,0,1-.0293.10742,0.19867,0.19867,0,0,1-.08008.08058A0.22027,0.22027,0,0,1,22.24707.564,0.24765,0.24765,0,0,1,22.07324.50488,0.20829,0.20829,0,0,1,22.00685.34033a0.22626,0.22626,0,0,1,.04883-0.146,0.24947,0.24947,0,0,1,.1367-0.08887A0.06885,0.06885,0,0,0,22.15332.07275,0.20036,0.20036,0,0,0,22.0791.06054a0.18921,0.18921,0,0,0-.17187.0835,0.3504,0.3504,0,0,0-.04688.13817,2.35168,2.35168,0,0,0-.01172.27588V0.84521h0.33789V0.90869H21.84863V2.15234a0.24194,0.24194,0,0,0,.07227.20313,0.37328,0.37328,0,0,0,.22461.05664v0.0664Q21.7002,2.46606,21.60059,2.4663q-0.09668,0-.41016.01221V2.4121a0.29935,0.29935,0,0,0,.11914-0.02,0.1169,0.1169,0,0,0,.0625-0.06982,0.36981,0.36981,0,0,0,.01953-0.13721V0.90869H20.83985V2.185a0.38028,0.38028,0,0,0,.01953.13721,0.12153,0.12153,0,0,0,.0625.06982,0.29993,0.29993,0,0,0,.12109.02V2.47851Q20.6958,2.46606,20.605,2.4663q-0.10986,0-.46191.01221V2.4121a0.34425,0.34425,0,0,0,.13037-0.02,0.1271,0.1271,0,0,0,.06885-0.06982,0.346,0.346,0,0,0,.02148-0.13721V0.90869H20.13085V0.84521h0.23291A0.88834,0.88834,0,0,1,20.41553.53613ZM21.46,0.35254A0.3646,0.3646,0,0,0,21.32129.24072a0.42558,0.42558,0,0,0-.1875-0.041,0.25572,0.25572,0,0,0-.22363.1001,0.56609,0.56609,0,0,0-.07031.31834V0.84521h0.55176A1.36237,1.36237,0,0,1,21.46.35253h0Z" transform="translate(0.00052)"/>
    <path class="cls-1" d="M23.62985,1.00585a0.9,0.9,0,0,1,.207.65674,0.89354,0.89354,0,0,1-.207.6543,0.88393,0.88393,0,0,1-1.13574,0,0.88936,0.88936,0,0,1-.207-0.6543,0.89628,0.89628,0,0,1,.207-0.65576A0.88074,0.88074,0,0,1,23.62985,1.00585Zm-0.78418.05273a1.673,1.673,0,0,0-.08105.604,1.6549,1.6549,0,0,0,.08105.60107,0.25214,0.25214,0,0,0,.2168.19629,0.24959,0.24959,0,0,0,.2168-0.19531,1.70393,1.70393,0,0,0,.08008-0.60205,1.7225,1.7225,0,0,0-.08008-0.605A0.25015,0.25015,0,0,0,23.06247.8608a0.2527,0.2527,0,0,0-.21677.19779h0Z" transform="translate(0.00052)"/>
    <path class="cls-1" d="M27.32129,1.00537a1.12654,1.12654,0,0,1-.47852.19824l-0.05859.02051a0.4454,0.4454,0,0,1,.21875.20166,0.6599,0.6599,0,0,1,.07617.32178,0.62972,0.62972,0,0,1-.13672.39795,0.89043,0.89043,0,0,1-.38477.27734,1.50531,1.50531,0,0,1-.56934.10059,1.79753,1.79753,0,0,1-.61133-0.0957,0.90916,0.90916,0,0,1-.40918-0.27441,0.6481,0.6481,0,0,1-.14453-0.418A0.56991,0.56991,0,0,1,24.93749,1.374a0.79307,0.79307,0,0,1,.25781-0.22363,1.26852,1.26852,0,0,1,.27055-0.10887,0.45543,0.45543,0,0,1-.3584-0.39844A0.31489,0.31489,0,0,1,25.19629.41992,0.55261,0.55261,0,0,1,25.42969.2793,0.98171,0.98171,0,0,1,25.73828.23193,0.95956,0.95956,0,0,1,25.93164.248a0.50391,0.50391,0,0,1,.13574.05029,0.28872,0.28872,0,0,1,.19336.25635,0.19048,0.19048,0,0,1-.0332.10938A0.22925,0.22925,0,0,1,26.1377.7373a0.28448,0.28448,0,0,1-.12109.02637,0.26652,0.26652,0,0,1-.166-0.05029,0.174,0.174,0,0,1-.06445-0.146A0.21042,0.21042,0,0,1,25.84277.42285,0.23957,0.23957,0,0,1,25.98828.34321a0.21507,0.21507,0,0,0-.085-0.041,0.461,0.461,0,0,0-.125-0.01611,0.43588,0.43588,0,0,0-.20113.04641,0.342,0.342,0,0,0-.1416.1397,0.45782,0.45782,0,0,0-.0527.228,0.472,0.472,0,0,0,.124.32275A0.93889,0.93889,0,0,1,25.68457.99853a0.1384,0.1384,0,0,1,.08594.02295,0.0744,0.0744,0,0,1,.03125.062,0.05806,0.05806,0,0,1-.02539.04785,0.11033,0.11033,0,0,1-.06445.01855A0.21825,0.21825,0,0,1,25.625,1.13035a0.68669,0.68669,0,0,1-.07616-0.03856l-0.03906-.02393a0.67224,0.67224,0,0,0-.248.20313,0.51231,0.51231,0,0,0-.08789.30811,0.5095,0.5095,0,0,0,.24512.46045,1.269,1.269,0,0,0,.67969.15479,1.36783,1.36783,0,0,0,.41992-0.06445,0.79325,0.79325,0,0,0,.32617-0.189,0.40929,0.40929,0,0,0,.125-0.29834,0.41056,0.41056,0,0,0-.24129-0.40334c-0.06055.01855-.13086,0.03906-0.21094,0.061-0.08008.02246-.13574,0.03857-0.16895,0.04883a2.27353,2.27353,0,0,0-.28711.07959,0.49871,0.49871,0,0,0-.168.0957,0.17371,0.17371,0,0,0-.05762.13232,0.19833,0.19833,0,0,0,.0498.1333,0.3297,0.3297,0,0,0,.12988.08984,0.43862,0.43862,0,0,0,.16309.03174,0.34079,0.34079,0,0,0,.07227-0.00928,0.11272,0.11272,0,0,0,.05273-0.022,0.2285,0.2285,0,0,1-.11719-0.08008,0.2054,0.2054,0,0,1-.04-0.12842,0.18407,0.18407,0,0,1,.07031-0.15283,0.28858,0.28858,0,0,1,.18262-0.05566,0.25928,0.25928,0,0,1,.17871.05859,0.1993,0.1993,0,0,1,.06543.15625,0.23269,0.23269,0,0,1-.127.21484,0.64,0.64,0,0,1-.32227.07227A0.61126,0.61126,0,0,1,25.956,1.92078a0.37817,0.37817,0,0,1-.16992-0.13623,0.384,0.384,0,0,1-.06348-0.22412,0.45048,0.45048,0,0,1,.18066-0.37549,1.274,1.274,0,0,1,.52734-0.207C26.46966,0.96769,26.54.9506,26.64154,0.92569c0.10254-.0249.18945-0.04932,0.26172-0.07422A1.32594,1.32594,0,0,0,27.26367.72021,0.20818,0.20818,0,0,0,27.38085.53955,0.23774,0.23774,0,0,0,27.3291.39111,0.34913,0.34913,0,0,0,27.19433.28759,0.411,0.411,0,0,0,27.02246.25048a0.21422,0.21422,0,0,0-.0918.01563,0.2463,0.2463,0,0,1,.11426.0835,0.19256,0.19256,0,0,1,.041.11572,0.17935,0.17935,0,0,1-.07127.14888A0.29133,0.29133,0,0,1,26.832.66939,0.27029,0.27029,0,0,1,26.6543.61279,0.19,0.19,0,0,1,26.58691.459,0.22151,0.22151,0,0,1,26.69336.26464,0.519,0.519,0,0,1,26.98242.19335a0.60973,0.60973,0,0,1,.26172.05322,0.40757,0.40757,0,0,1,.17671.15479,0.44241,0.44241,0,0,1,.06348.23877A0.44571,0.44571,0,0,1,27.32129,1.00537Z" transform="translate(0.00052)"/>
    <path class="cls-1" d="M29.12012,2.12451a0.47973,0.47973,0,0,0,.02637.18506,0.13992,0.13992,0,0,0,.09473.07764,0.86134,0.86134,0,0,0,.21777.022v0.0693Q29.06933,2.469,28.8789,2.46921c-0.06055,0-.22656.00293-0.499,0.00928V2.415a0.48667,0.48667,0,0,0,.15332-0.02441,0.116,0.116,0,0,0,.06543-0.07422,0.61321,0.61321,0,0,0,.01758-0.17334V0.57321a0.61161,0.61161,0,0,0-.0176-0.17282A0.116,0.116,0,0,0,28.5332.32621,0.48669,0.48669,0,0,0,28.37985.30175V0.23828c0.10645,0.00586.2666,0.00928,0.48047,0.00928q0.1275,0,.28125-0.00342c0.10352-.002.1748-0.00293,0.21484-0.00293a1.3142,1.3142,0,0,1,.48444.07812,0.625,0.625,0,0,1,.29492.21875,0.55726,0.55726,0,0,1,.0986.32713,0.68589,0.68589,0,0,1-.08789.334,0.67653,0.67653,0,0,1-.2998.26709,1.24965,1.24965,0,0,1-.55957.10693h-0.167V2.12451h0Zm0.49121-.7793A0.86864,0.86864,0,0,0,29.709.89941a0.86458,0.86458,0,0,0-.0918-0.45264,0.32768,0.32768,0,0,0-.30078-0.145,0.27719,0.27719,0,0,0-.126.022,0.11893,0.11893,0,0,0-.05566.0791,0.73052,0.73052,0,0,0-.01462.17034V1.50976h0.13573A0.37738,0.37738,0,0,0,29.61133,1.34521Z" transform="translate(0.00052)"/>
    <path class="cls-1" d="M31.15137,0.93652A0.23936,0.23936,0,0,0,30.956.86084a0.40584,0.40584,0,0,0-.124.01953A0.25177,0.25177,0,0,0,30.73049.938a0.28767,0.28767,0,0,1,.1377.0918A0.25057,0.25057,0,0,1,30.917,1.187a0.21322,0.21322,0,0,1-.12207.19824,0.29023,0.29023,0,0,1-.13379.03027A0.20457,0.20457,0,0,1,30.498,1.34621a0.25479,0.25479,0,0,1-.06152-0.1748A0.3011,0.3011,0,0,1,30.61328.90576,0.98094,0.98094,0,0,1,31.09473.79882a0.622,0.622,0,0,1,.46191.14258,0.33146,0.33146,0,0,1,.08984.165,1.26473,1.26473,0,0,1,.02344.27686V2.24365a0.28319,0.28319,0,0,0,.01465.10889,0.052,0.052,0,0,0,.05176.03174,0.19546,0.19546,0,0,0,.11719-0.0542l0.03223,0.0542a0.47361,0.47361,0,0,1-.15723.08789,0.661,0.661,0,0,1-.2041.02783A0.3164,0.3164,0,0,1,31.293,2.4292a0.24947,0.24947,0,0,1-.07129-0.18555,0.50584,0.50584,0,0,1-.20215.19238A0.584,0.584,0,0,1,30.752,2.5a0.42942,0.42942,0,0,1-.29-0.09473,0.33436,0.33436,0,0,1-.1084-0.26514,0.37016,0.37016,0,0,1,.1084-0.27344,0.90689,0.90689,0,0,1,.335-0.19141l0.16016-.061a0.64339,0.64339,0,0,0,.19629-0.106,0.15933,0.15933,0,0,0,.06045-0.11915V1.14355A0.31378,0.31378,0,0,0,31.15137.93652Zm-0.00293.65283a1.38391,1.38391,0,0,1-.13086.08887,0.58505,0.58505,0,0,0-.15723.15674,0.38806,0.38806,0,0,0-.05762.21729,0.27229,0.27229,0,0,0,.05469.18457,0.17907,0.17907,0,0,0,.1416.061A0.25779,0.25779,0,0,0,31.21385,2.168V1.519A0.28339,0.28339,0,0,1,31.14844,1.58935Z" transform="translate(0.00052)"/>
    <path class="cls-1" d="M32.80957,0.8833A0.419,0.419,0,0,1,33.0664.79882a0.29071,0.29071,0,0,1,.16113.042,0.2561,0.2561,0,0,1,.0957.10742,0.32787,0.32787,0,0,1,.03125.14111,0.27534,0.27534,0,0,1-.06836.19189,0.23238,0.23238,0,0,1-.17969.07422,0.24789,0.24789,0,0,1-.16992-0.05518,0.185,0.185,0,0,1-.0625-0.14746A0.2884,0.2884,0,0,1,33.01269.90576,0.15844,0.15844,0,0,0,32.97363.90087a0.20057,0.20057,0,0,0-.04878.00782,0.27065,0.27065,0,0,0-.14746.07666,0.45917,0.45917,0,0,0-.10352.15381,0.44292,0.44292,0,0,0-.03809.17432V2.15234a0.24473,0.24473,0,0,0,.07129.20313,0.364,0.364,0,0,0,.22656.05664v0.0664C32.67,2.47021,32.502,2.4663,32.4307,2.4663c-0.06738,0-.21875.00391-0.45312,0.01221V2.4121a0.30126,0.30126,0,0,0,.12012-0.02,0.11994,0.11994,0,0,0,.0625-0.06982,0.36985,0.36985,0,0,0,.01953-0.13721V1.187a0.38169,0.38169,0,0,0-.04492-0.2124A0.17537,0.17537,0,0,0,31.97754.90869V0.84228c0.06641,0.00635.13184,0.00928,0.19629,0.00928A2.05285,2.05285,0,0,0,32.63574.8081V1.102A0.53756,0.53756,0,0,1,32.80957.8833Z" transform="translate(0.00052)"/>
    <path class="cls-1" d="M34.47265,0.84521V0.90869h-0.374V2.185a0.19961,0.19961,0,0,0,.03418.1333,0.13026,0.13026,0,0,0,.10449.03955A0.24906,0.24906,0,0,0,34.45216,2.168l0.05369,0.0293a0.43553,0.43553,0,0,1-.43262.32617,0.4287,0.4287,0,0,1-.31641-0.1084A0.34022,0.34022,0,0,1,33.666,2.25048a1.2641,1.2641,0,0,1-.02344-0.27588V0.90869H33.377V0.84521h0.26563V0.42529A0.97238,0.97238,0,0,0,34.09863.32321v0.522h0.374Z" transform="translate(0.00052)"/>
    <path class="cls-1" d="M35.74609,0.79882A0.6144,0.6144,0,0,1,35.958.83007a0.33306,0.33306,0,0,1,.13574.09082,0.37668,0.37668,0,0,1,.0752.15625,1.12141,1.12141,0,0,1,.02344.25635V2.185a0.39133,0.39133,0,0,0,.01953.13721,0.12815,0.12815,0,0,0,.06348.06982,0.29286,0.29286,0,0,0,.11914.02V2.47851c-0.21-.0083-0.34961-0.01221-0.417-0.01221-0.06543,0-.20215.00391-0.41309,0.01221V2.4121a0.21821,0.21821,0,0,0,.10254-0.02,0.11636,0.11636,0,0,0,.05273-0.06982,0.42727,0.42727,0,0,0,.0166-0.13721V1.20068a0.36892,0.36892,0,0,0-.042-0.19629A0.17,0.17,0,0,0,35.54.938a0.28045,0.28045,0,0,0-.1582.04785,0.33052,0.33052,0,0,0-.11328.13232,0.4069,0.4069,0,0,0-.042.186V2.185a0.45687,0.45687,0,0,0,.0166.13721,0.11888,0.11888,0,0,0,.05469.06982,0.21224,0.21224,0,0,0,.10059.02V2.47851q-0.2915-.01245-0.39258-0.01221c-0.06543,0-.21094.00391-0.4375,0.01221V2.4121a0.30126,0.30126,0,0,0,.12012-0.02,0.11994,0.11994,0,0,0,.0625-0.06982,0.36985,0.36985,0,0,0,.01953-0.13721V1.187a0.38169,0.38169,0,0,0-.04492-0.2124,0.17537,0.17537,0,0,0-.1572-0.06592V0.84228c0.06641,0.00635.13184,0.00928,0.19629,0.00928A2.05285,2.05285,0,0,0,35.22656.8081V1.09277A0.52645,0.52645,0,0,1,35.74609.79882Z" transform="translate(0.00052)"/>
    <path class="cls-1" d="M37.0293,1.64892a0.89461,0.89461,0,0,0,.05859.34814,0.4496,0.4496,0,0,0,.15234.20264,0.34633,0.34633,0,0,0,.19922.064,0.4749,0.4749,0,0,0,.419-0.25349l0.05566,0.01855a0.78884,0.78884,0,0,1-.124.2417,0.66339,0.66339,0,0,1-.21387.18262,0.603,0.603,0,0,1-.29395.07031,0.77147,0.77147,0,0,1-.38281-0.09277,0.6285,0.6285,0,0,1-.25586-0.28223,1.06767,1.06767,0,0,1-.0918-0.47021,1.06654,1.06654,0,0,1,.09863-0.48437A0.67717,0.67717,0,0,1,36.92385.89794a0.80426,0.80426,0,0,1,.4033-0.09912,0.57772,0.57772,0,0,1,.59473.70166H37.0332C37.03027,1.53121,37.0293,1.581,37.0293,1.64892Zm0.44336-.61963a0.18974,0.18974,0,0,0-.166-0.16408,0.2178,0.2178,0,0,0-.1875.14014,1.10755,1.10755,0,0,0-.0918.43506h0.49609A1.22738,1.22738,0,0,0,37.47266,1.02929Z" transform="translate(0.00052)"/>
    <path class="cls-1" d="M38.918,0.8833A0.419,0.419,0,0,1,39.17485.79882a0.29071,0.29071,0,0,1,.16113.042,0.2561,0.2561,0,0,1,.0957.10742,0.32789,0.32789,0,0,1,.03117.14111,0.27534,0.27534,0,0,1-.06836.19189,0.23238,0.23238,0,0,1-.17969.07422,0.24789,0.24789,0,0,1-.16992-0.05518,0.185,0.185,0,0,1-.0625-0.14746A0.2884,0.2884,0,0,1,39.12109.90576,0.15844,0.15844,0,0,0,39.082.90087a0.20057,0.20057,0,0,0-.04883.00781,0.27065,0.27065,0,0,0-.14746.07666,0.45917,0.45917,0,0,0-.10352.15381,0.44292,0.44292,0,0,0-.03809.17432V2.15234a0.24473,0.24473,0,0,0,.07129.20313,0.364,0.364,0,0,0,.22656.05664v0.0664C38.77831,2.47021,38.61034,2.4663,38.539,2.4663c-0.06738,0-.21875.00391-0.45312,0.01221V2.4121a0.30126,0.30126,0,0,0,.12012-0.02,0.11994,0.11994,0,0,0,.0625-0.06982,0.36985,0.36985,0,0,0,.01953-0.13721V1.187a0.38169,0.38169,0,0,0-.04492-0.2124A0.17537,0.17537,0,0,0,38.08594.90869V0.84228c0.06641,0.00635.13184,0.00928,0.19629,0.00928A2.05285,2.05285,0,0,0,38.74414.8081V1.102A0.53756,0.53756,0,0,1,38.918.8833Z" transform="translate(0.00052)"/>
    <path class="cls-1" d="M39.8457,2.29638a0.32857,0.32857,0,0,0,.291.1543,0.23507,0.23507,0,0,0,.1582-0.05615,0.2107,0.2107,0,0,0,.06543-0.16943,0.31363,0.31363,0,0,0-.03906-0.15771,0.49465,0.49465,0,0,0-.09961-0.12354c-0.04-.03613-0.10059-0.08545-0.18066-0.14844-0.09766-.0791-0.17187-0.1416-0.2207-0.18652a0.66119,0.66119,0,0,1-.126-0.16162,0.43565,0.43565,0,0,1-.05176-0.2124A0.3778,0.3778,0,0,1,39.7168,1,0.45039,0.45039,0,0,1,39.916.8501,0.70733,0.70733,0,0,1,40.1875.79882a0.766,0.766,0,0,1,.2207.02979,0.56513,0.56513,0,0,1,.1582.06787A0.10158,0.10158,0,0,0,40.62206.918c0.03906,0,.06348-0.03857.07422-0.11572h0.06934c-0.00879.106-.0127,0.2915-0.0127,0.55615H40.68359a0.796,0.796,0,0,0-.124-0.34863A0.31924,0.31924,0,0,0,40.27832.86865a0.22207,0.22207,0,0,0-.1543.0542,0.18824,0.18824,0,0,0-.05957.14795,0.26451,0.26451,0,0,0,.07031.18408,1.09452,1.09452,0,0,0,.17188.14844c0.06738,0.04736.11621,0.08252,0.14648,0.10645a2.3103,2.3103,0,0,1,.20605.16992,0.617,0.617,0,0,1,.125.16455,0.4477,0.4477,0,0,1,.04785.21094,0.396,0.396,0,0,1-.08105.24561,0.5242,0.5242,0,0,1-.21875.16455,0.77128,0.77128,0,0,1-.30176.05811,0.61767,0.61767,0,0,1-.293-0.06641A1.21258,1.21258,0,0,0,39.789,2.39063l-0.01558-.00342c-0.03418,0-.05859.0376-0.07422,0.11279H39.62985c0.00781-.12061.0127-0.331,0.0127-0.63184h0.06934A0.97175,0.97175,0,0,0,39.8457,2.29638Z" transform="translate(0.00052)"/>
    <path class="cls-2" d="M12.93213,5.92431l-0.11279-.31445H12.38525l-0.11084.31445H12.0791l0.42432-1.13867h0.20166l0.42431,1.13867H12.93213ZM12.77,5.4497l-0.106-.30859c-0.00777-.02051-0.01851-0.05371-0.03217-0.09766-0.01367-.04492-0.02344-0.07715-0.02832-0.09766a1.76932,1.76932,0,0,1-.06152.208l-0.102.2959H12.77Z" transform="translate(0.00052)"/>
    <path class="cls-2" d="M13.94092,5.47121v0.4531H13.75585V4.78955h0.32031a0.52658,0.52658,0,0,1,.32471.083,0.29514,0.29514,0,0,1,.10547.248,0.30937,0.30937,0,0,1-.22021.30176l0.32031,0.502H14.39551L14.124,5.47121h-0.1831Zm0-.15332h0.12893A0.298,0.298,0,0,0,14.25735,5.27a0.17533,0.17533,0,0,0,.05859-0.14355,0.154,0.154,0,0,0-.063-0.1377,0.3415,0.3415,0,0,0-.18945-0.042H13.94092v0.3711Z" transform="translate(0.00052)"/>
    <path class="cls-2" d="M15.73,4.9331a0.30688,0.30688,0,0,0-.25146.11328,0.48326,0.48326,0,0,0-.09131.3125,0.48778,0.48778,0,0,0,.08789.31543,0.31124,0.31124,0,0,0,.25488.10742,0.65784,0.65784,0,0,0,.13965-0.01465c0.04492-.00977.0918-0.02148,0.14014-0.03711V5.88916a0.83663,0.83663,0,0,1-.30225.05078,0.48522,0.48522,0,0,1-.38281-0.15137,0.63093,0.63093,0,0,1-.1333-0.43164,0.69756,0.69756,0,0,1,.06494-0.30957,0.4612,0.4612,0,0,1,.1875-0.20315,0.56671,0.56671,0,0,1,.2876-0.07031,0.72607,0.72607,0,0,1,.32129.07227l-0.06689.15529a0.89975,0.89975,0,0,0-.12158-0.04785A0.43635,0.43635,0,0,0,15.73,4.9331Z" transform="translate(0.00052)"/>
    <path class="cls-2" d="M17.625,5.92431H17.439V5.41357H16.916V5.92431H16.731V4.78955H16.916V5.25439H17.439V4.78955h0.186V5.92431h0Z" transform="translate(0.00052)"/>
    <path class="cls-2" d="M18.40085,5.92431V4.78955h0.18506V5.92431H18.40085Z" transform="translate(0.00052)"/>
    <path class="cls-2" d="M19.7539,5.92431H19.56836V4.9497H19.23485V4.78955h0.85254V4.9497h-0.3335V5.92431h0Z" transform="translate(0.00052)"/>
    <path class="cls-2" d="M21.37985,5.92431H20.73779V4.78955h0.64206V4.94677H20.92236v0.3086h0.42822V5.41064H20.92236V5.76709h0.45749V5.92431Z" transform="translate(0.00052)"/>
    <path class="cls-2" d="M22.49219,5.92431H22.30762V4.9497h-0.334V4.78955h0.85254V4.9497h-0.334V5.92431h0Z" transform="translate(0.00052)"/>
    <path class="cls-2" d="M23.86816,5.92431H23.68359V4.9497h-0.334V4.78955h0.85256V4.9497h-0.334V5.92431Z" transform="translate(0.00052)"/>
    <path class="cls-2" d="M25.74121,4.78955V5.52392a0.43147,0.43147,0,0,1-.05469.21973,0.35577,0.35577,0,0,1-.15527.14551,0.53938,0.53938,0,0,1-.24414.05078A0.45742,0.45742,0,0,1,24.959,5.82861,0.40693,0.40693,0,0,1,24.8418,5.521V4.78955h0.18652V5.50732a0.29164,0.29164,0,0,0,.06445.208,0.27186,0.27186,0,0,0,.2002.06641,0.23809,0.23809,0,0,0,.2627-0.27539V4.78955h0.18554Z" transform="translate(0.00052)"/>
    <path class="cls-2" d="M26.69336,5.47121v0.4531H26.50785V4.78955h0.32031a0.52721,0.52721,0,0,1,.3252.083,0.29514,0.29514,0,0,1,.10547.248,0.30951,0.30951,0,0,1-.21973.30176l0.32031,0.502h-0.211l-0.27149-.4531H26.69336Zm0-.15332h0.12891A0.29993,0.29993,0,0,0,27.00977,5.27a0.17533,0.17533,0,0,0,.05859-0.14355,0.15426,0.15426,0,0,0-.06348-0.1377,0.33675,0.33675,0,0,0-.18848-0.042h-0.123V5.31787Z" transform="translate(0.00052)"/>
    <path class="cls-2" d="M28.806,5.92431l-0.11279-.31445H28.2591l-0.11084.31445H27.95294l0.42432-1.13867h0.20166l0.42431,1.13867H28.806ZM28.64386,5.4497l-0.106-.30859C28.5301,5.1206,28.51935,5.0874,28.50569,5.04345,28.492,4.99853,28.48225,4.9663,28.47737,4.94579a1.76932,1.76932,0,0,1-.06152.208l-0.102.2959h0.33006Z" transform="translate(0.00052)"/>
  </g>
</svg>
