<svg id="Capa_1" data-name="Capa 1" xmlns="http://www.w3.org/2000/svg" viewBox="0 0 51.01 38"><defs><style>.cls-1{fill:#fff;}</style></defs><title>menu</title><path class="cls-1" d="M2,27.5H51c1.1,0,1-.56,1-1.25S52.1,25,51,25H2c-1.1,0-1,.56-1,1.25S0.9,27.5,2,27.5Z" transform="translate(-1 -7.5)"/><path class="cls-1" d="M2,45.5H51c1.1,0,1-.56,1-1.25S52.1,43,51,43H2c-1.1,0-1,.56-1,1.25S0.9,45.5,2,45.5Z" transform="translate(-1 -7.5)"/><path class="cls-1" d="M2,10H51c1.1,0,1-.56,1-1.25S52.1,7.5,51,7.5H2c-1.1,0-1,.56-1,1.25S0.9,10,2,10Z" transform="translate(-1 -7.5)"/></svg>